M48
; DRILL file {KiCad 7.0.10} date Tuesday, May 20, 2025 at 06:51:50 AM
; FORMAT={-:-/ absolute / inch / decimal}
; #@! TF.CreationDate,2025-05-20T06:51:50+01:00
; #@! TF.GenerationSoftware,Kicad,Pcbnew,7.0.10
; #@! TF.FileFunction,NonPlated,1,2,NPTH
FMAT,2
INCH
; #@! TA.AperFunction,NonPlated,NPTH,ComponentDrill
T1C0.0669
; #@! TA.AperFunction,NonPlated,NPTH,ComponentDrill
T2C0.1575
%
G90
G05
T1
X2.45Y-6.05
X2.45Y-6.8
X2.45Y-7.55
X2.45Y-8.3
X2.85Y-6.05
X2.85Y-6.8
X2.85Y-7.55
X2.85Y-8.3
X3.2Y-6.05
X3.2Y-6.8
X3.2Y-7.55
X3.2Y-8.3
X3.6Y-6.05
X3.6Y-6.8
X3.6Y-7.55
X3.6Y-8.3
X3.95Y-6.05
X3.95Y-6.8
X3.95Y-7.55
X3.95Y-8.3
X4.35Y-6.05
X4.35Y-6.8
X4.35Y-7.55
X4.35Y-8.3
X4.7Y-6.05
X4.7Y-6.8
X4.7Y-7.55
X4.7Y-8.3
X5.1Y-6.05
X5.1Y-6.8
X5.1Y-7.55
X5.1Y-8.3
X5.45Y-6.05
X5.45Y-6.8
X5.45Y-7.55
X5.45Y-8.3
X5.85Y-6.05
X5.85Y-6.8
X5.85Y-7.55
X5.85Y-8.3
X6.2Y-6.05
X6.2Y-6.8
X6.2Y-7.55
X6.2Y-8.3
X6.6Y-6.05
X6.6Y-6.8
X6.6Y-7.55
X6.6Y-8.3
X6.95Y-6.05
X6.95Y-6.8
X6.95Y-7.55
X6.95Y-8.3
X7.35Y-6.05
X7.35Y-6.8
X7.35Y-7.55
X7.35Y-8.3
X7.7Y-6.05
X7.7Y-6.8
X7.7Y-7.55
X7.7Y-8.3
X8.1Y-6.05
X8.1Y-6.8
X8.1Y-7.55
X8.1Y-8.3
X8.45Y-6.05
X8.45Y-6.8
X8.45Y-7.55
X8.45Y-8.3
X8.85Y-6.05
X8.85Y-6.8
X8.85Y-7.55
X8.85Y-8.3
X9.2Y-6.05
X9.2Y-6.8
X9.2Y-7.55
X9.2Y-8.3
X9.6Y-6.05
X9.6Y-6.8
X9.6Y-7.55
X9.6Y-8.3
X9.95Y-6.05
X9.95Y-6.8
X9.95Y-7.55
X9.95Y-8.3
X10.35Y-6.05
X10.35Y-6.8
X10.35Y-7.55
X10.35Y-8.3
X10.7Y-6.05
X10.7Y-6.8
X10.7Y-7.55
X10.7Y-8.3
X11.1Y-6.05
X11.1Y-6.8
X11.1Y-7.55
X11.1Y-8.3
X11.45Y-6.05
X11.45Y-6.8
X11.45Y-7.55
X11.45Y-8.3
X11.85Y-6.05
X11.85Y-6.8
X11.85Y-7.55
X11.85Y-8.3
X12.2Y-6.05
X12.2Y-6.8
X12.2Y-7.55
X12.2Y-8.3
X12.6Y-6.05
X12.6Y-6.8
X12.6Y-7.55
X12.6Y-8.3
X12.95Y-6.05
X12.95Y-6.8
X12.95Y-7.55
X12.95Y-8.3
X13.35Y-6.05
X13.35Y-6.8
X13.35Y-7.55
X13.35Y-8.3
X13.7Y-6.05
X13.7Y-6.8
X13.7Y-7.55
X13.7Y-8.3
X14.1Y-6.05
X14.1Y-6.8
X14.1Y-7.55
X14.1Y-8.3
T2
X2.65Y-6.05
X2.65Y-6.8
X2.65Y-7.55
X2.65Y-8.3
X3.4Y-6.05
X3.4Y-6.8
X3.4Y-7.55
X3.4Y-8.3
X4.15Y-6.05
X4.15Y-6.8
X4.15Y-7.55
X4.15Y-8.3
X4.9Y-6.05
X4.9Y-6.8
X4.9Y-7.55
X4.9Y-8.3
X5.65Y-6.05
X5.65Y-6.8
X5.65Y-7.55
X5.65Y-8.3
X6.4Y-6.05
X6.4Y-6.8
X6.4Y-7.55
X6.4Y-8.3
X7.15Y-6.05
X7.15Y-6.8
X7.15Y-7.55
X7.15Y-8.3
X7.9Y-6.05
X7.9Y-6.8
X7.9Y-7.55
X7.9Y-8.3
X8.65Y-6.05
X8.65Y-6.8
X8.65Y-7.55
X8.65Y-8.3
X9.4Y-6.05
X9.4Y-6.8
X9.4Y-7.55
X9.4Y-8.3
X10.15Y-6.05
X10.15Y-6.8
X10.15Y-7.55
X10.15Y-8.3
X10.9Y-6.05
X10.9Y-6.8
X10.9Y-7.55
X10.9Y-8.3
X11.65Y-6.05
X11.65Y-6.8
X11.65Y-7.55
X11.65Y-8.3
X12.4Y-6.05
X12.4Y-6.8
X12.4Y-7.55
X12.4Y-8.3
X13.15Y-6.05
X13.15Y-6.8
X13.15Y-7.55
X13.15Y-8.3
X13.9Y-6.05
X13.9Y-6.8
X13.9Y-7.55
X13.9Y-8.3
M30
