M48
; DRILL file {KiCad 7.0.10} date Saturday, March 29, 2025 at 08:02:53 AM
; FORMAT={-:-/ absolute / inch / decimal}
; #@! TF.CreationDate,2025-03-29T08:02:53+00:00
; #@! TF.GenerationSoftware,Kicad,Pcbnew,7.0.10
; #@! TF.FileFunction,NonPlated,1,2,NPTH
FMAT,2
INCH
; #@! TA.AperFunction,NonPlated,NPTH,ComponentDrill
T1C0.0709
%
G90
G05
T1
X2.0673Y-5.6402
X2.0673Y-5.9945
X2.0673Y-6.3343
X2.0673Y-6.6886
X2.0673Y-7.0362
X2.0673Y-7.3906
X2.0673Y-7.7445
X2.0673Y-8.0988
X2.0673Y-8.435
X2.0673Y-8.7894
X2.788Y-5.6402
X2.788Y-5.9945
X2.8641Y-7.7445
X2.8641Y-8.0988
X2.8641Y-8.435
X2.8641Y-8.7894
X3.1303Y-6.3343
X3.1303Y-6.6886
X3.2512Y-7.0362
X3.2512Y-7.3906
X3.5087Y-5.6402
X3.5087Y-5.9945
X3.5976Y-7.7445
X3.5976Y-8.0988
X3.5976Y-8.435
X3.5976Y-8.7894
X3.8565Y-6.3343
X3.8565Y-6.6886
X3.9751Y-7.0362
X3.9751Y-7.3906
X4.2295Y-5.6402
X4.2295Y-5.9945
X4.331Y-7.7445
X4.331Y-8.0988
X4.331Y-8.4496
X4.331Y-8.8039
X4.5827Y-6.3343
X4.5827Y-6.6886
X4.699Y-7.0362
X4.699Y-7.3906
X4.9502Y-5.6402
X4.9502Y-5.9945
X5.0644Y-7.7445
X5.0644Y-8.0988
X5.3088Y-6.3343
X5.3088Y-6.6886
X5.4229Y-7.0362
X5.4229Y-7.3906
X5.6709Y-5.6402
X5.6709Y-5.9945
X5.7978Y-7.7445
X5.7978Y-8.0988
X6.035Y-6.3343
X6.035Y-6.6886
X6.1468Y-7.0362
X6.1468Y-7.3906
X6.3916Y-5.6402
X6.3916Y-5.9945
X6.5272Y-8.4496
X6.5272Y-8.8039
X6.5312Y-7.7445
X6.5312Y-8.0988
X6.7612Y-6.3343
X6.7612Y-6.6886
X6.8707Y-7.0362
X6.8707Y-7.3906
X7.1124Y-5.6402
X7.1124Y-5.9945
X7.2646Y-7.7445
X7.2646Y-8.0988
X7.4874Y-6.3343
X7.4874Y-6.6886
X7.5946Y-7.0362
X7.5946Y-7.3906
X7.8331Y-5.6402
X7.8331Y-5.9945
X7.9981Y-7.7445
X7.9981Y-8.0988
X8.2135Y-6.3343
X8.2135Y-6.6886
X8.3185Y-7.0362
X8.3185Y-7.3906
X8.5538Y-5.6402
X8.5538Y-5.9945
X8.7315Y-7.7445
X8.7315Y-8.0988
X8.9397Y-6.3343
X8.9397Y-6.6886
X9.0423Y-7.0362
X9.0423Y-7.3906
X9.2746Y-5.6402
X9.2746Y-5.9945
X9.4649Y-7.7445
X9.4649Y-8.0988
X9.6659Y-6.3343
X9.6659Y-6.6886
X9.7662Y-7.0362
X9.7662Y-7.3906
X9.9953Y-5.6402
X9.9953Y-5.9945
X10.1983Y-7.7445
X10.1983Y-8.0988
X10.392Y-6.3343
X10.392Y-6.6886
X10.4901Y-7.0362
X10.4901Y-7.3906
X10.716Y-5.6402
X10.716Y-5.9945
X10.9317Y-7.7445
X10.9317Y-8.0988
X11.1182Y-6.3343
X11.1182Y-6.6886
X11.214Y-7.0362
X11.214Y-7.3906
X11.8401Y-7.7445
X11.8401Y-8.0988
X11.8444Y-6.3343
X11.8444Y-6.6886
X11.8476Y-5.6402
X11.8476Y-5.9945
X12.5634Y-7.0362
X12.5634Y-7.3906
X12.5634Y-7.7445
X12.5634Y-8.0988
X12.5634Y-8.4496
X12.5634Y-8.8039
X13.2866Y-7.7445
X13.2866Y-8.0988
M30
