M48
; DRILL file {KiCad 7.0.10} date Saturday, March 29, 2025 at 08:02:53 AM
; FORMAT={-:-/ absolute / inch / decimal}
; #@! TF.CreationDate,2025-03-29T08:02:53+00:00
; #@! TF.GenerationSoftware,Kicad,Pcbnew,7.0.10
; #@! TF.FileFunction,Plated,1,2,PTH
FMAT,2
INCH
; #@! TA.AperFunction,Plated,PTH,ViaDrill
T1C0.0157
; #@! TA.AperFunction,Plated,PTH,ComponentDrill
T2C0.0276
; #@! TA.AperFunction,Plated,PTH,ComponentDrill
T3C0.0315
; #@! TA.AperFunction,Plated,PTH,ComponentDrill
T4C0.0394
; #@! TA.AperFunction,Plated,PTH,ComponentDrill
T5C0.0472
%
G90
G05
T1
X1.5236Y-6.1031
X1.5957Y-7.1083
X3.3047Y-5.5398
X3.4106Y-5.4319
X3.9858Y-8.9138
X6.4142Y-4.2071
X6.7114Y-3.8665
X6.8354Y-3.8665
X7.037Y-3.535
X7.1689Y-3.5311
X7.2169Y-4.2146
X8.3008Y-2.072
X8.3921Y-2.3252
X9.772Y-5.065
X10.5874Y-4.973
X10.726Y-2.4909
X10.726Y-3.0047
X10.8673Y-3.228
X10.8803Y-2.9102
X10.8831Y-2.8189
X10.922Y-2.8618
X10.9244Y-2.7776
X10.9327Y-2.5799
X10.9614Y-2.5319
X10.9874Y-5.4185
X10.9957Y-1.5937
X10.9957Y-2.215
X10.9969Y-2.0295
X11.1843Y-3.2228
X11.405Y-4.8732
X11.4626Y-3.1098
X11.4894Y-4.9079
X11.5098Y-4.2535
X11.5319Y-2.5189
X11.5323Y-5.2606
X11.5614Y-4.2917
X11.5949Y-7.9169
X11.6Y-5.2626
X11.6622Y-3.1
X11.6917Y-2.5193
X11.7618Y-4.5744
X11.9894Y-2.5185
X11.9941Y-4.1398
X12.0244Y-2.0154
X12.0709Y-3.822
X12.0866Y-3.0181
X12.0878Y-3.0839
X12.1248Y-3.872
X12.1709Y-3.9126
X12.172Y-2.5185
X12.2059Y-3.1201
X12.2075Y-2.9567
X12.2209Y-3.9626
X12.2524Y-3.8827
X12.2634Y-4.0366
X12.3429Y-4.1398
X12.3657Y-4.4043
X12.4028Y-1.7917
X12.4161Y-2.8744
X12.4587Y-1.835
X12.5059Y-3.7224
X12.5189Y-3.522
X12.5535Y-1.6366
X12.5634Y-2.7756
X12.602Y-1.8287
X12.6102Y-3.5591
X12.6134Y-3.8866
X12.6602Y-1.8811
X12.6661Y-3.5307
X12.6921Y-3.476
X12.7189Y-4.374
X12.7551Y-3.1579
X12.7571Y-3.8772
X12.8004Y-3.5343
X12.8091Y-3.187
X12.8102Y-3.7307
X12.8425Y-3.7976
X12.8559Y-1.9224
X12.8575Y-4.5705
X12.8591Y-3.5343
X12.8858Y-3.0886
X12.8961Y-4.5276
X12.9165Y-1.922
X12.9398Y-3.7965
X12.9563Y-4.1012
X13.0159Y-4.4228
X13.0335Y-1.8776
X13.0602Y-3.239
X13.0752Y-4.5705
X13.0764Y-1.9232
X13.1106Y-2.9126
X13.1118Y-4.6669
X13.1256Y-7.5047
X13.1429Y-2.1579
X13.2563Y-3.2165
X13.2693Y-3.4894
X13.2772Y-3.7709
X13.2791Y-4.6669
X13.2823Y-4.1685
X13.2988Y-7.5035
X13.3533Y-3.2472
X13.3984Y-3.7709
X13.4012Y-3.2181
X13.4437Y-4.328
X13.4661Y-3.2638
X13.4677Y-3.2193
X13.4681Y-3.1724
X13.4704Y-3.049
X13.4704Y-3.1287
X13.4705Y-2.9642
X13.4705Y-3.0035
X13.4705Y-3.0884
X13.4799Y-2.4256
X13.5161Y-2.4681
X13.55Y-2.5126
X13.5862Y-2.5512
T2
X8.5685Y-2.0051
X8.8685Y-2.0051
X11.285Y-3.3323
X11.285Y-3.6323
X11.4006Y-3.3323
X11.4006Y-3.6323
X11.5161Y-3.3323
X11.5161Y-3.6323
X11.6316Y-3.3323
X11.6316Y-3.6323
X11.7471Y-3.3323
X11.7471Y-3.6323
X11.8627Y-3.3323
X11.8627Y-3.6323
X11.9752Y-3.3323
X11.9752Y-3.6323
X12.0937Y-3.3323
X12.0937Y-3.6323
T3
X2.4276Y-5.6677
X2.4276Y-5.9677
X2.4295Y-6.3662
X2.4295Y-6.6662
X2.4295Y-7.0585
X2.4295Y-7.3585
X2.4362Y-8.4587
X2.4362Y-8.7587
X2.437Y-7.7728
X2.437Y-8.0728
X3.1484Y-5.6677
X3.1484Y-5.9677
X3.2308Y-7.7728
X3.2308Y-8.0728
X3.2308Y-8.4587
X3.2308Y-8.7587
X3.4934Y-6.3662
X3.4934Y-6.6662
X3.6131Y-7.0585
X3.6131Y-7.3585
X3.8691Y-5.6677
X3.8691Y-5.9677
X3.9643Y-7.7728
X3.9643Y-8.0728
X3.9643Y-8.4587
X3.9643Y-8.7587
X4.2196Y-6.3662
X4.2196Y-6.6662
X4.337Y-7.0585
X4.337Y-7.3585
X4.5898Y-5.6677
X4.5898Y-5.9677
X4.6977Y-7.7728
X4.6977Y-8.0728
X4.7035Y-8.4764
X4.7035Y-8.7764
X4.9457Y-6.3662
X4.9457Y-6.6662
X5.0609Y-7.0585
X5.0609Y-7.3585
X5.3106Y-5.6677
X5.3106Y-5.9677
X5.4311Y-7.7728
X5.4311Y-8.0728
X5.6719Y-6.3662
X5.6719Y-6.6662
X5.7848Y-7.0585
X5.7848Y-7.3585
X6.0313Y-5.6677
X6.0313Y-5.9677
X6.1645Y-7.7728
X6.1645Y-8.0728
X6.3981Y-6.3662
X6.3981Y-6.6662
X6.5087Y-7.0585
X6.5087Y-7.3585
X6.752Y-5.6677
X6.752Y-5.9677
X6.8957Y-8.4764
X6.8957Y-8.7764
X6.8979Y-7.7728
X6.8979Y-8.0728
X7.1243Y-6.3662
X7.1243Y-6.6662
X7.2326Y-7.0585
X7.2326Y-7.3585
X7.4727Y-5.6677
X7.4727Y-5.9677
X7.6313Y-7.7728
X7.6313Y-8.0728
X7.8504Y-6.3662
X7.8504Y-6.6662
X7.9565Y-7.0585
X7.9565Y-7.3585
X8.1935Y-5.6677
X8.1935Y-5.9677
X8.3648Y-7.7743
X8.3648Y-8.0743
X8.5766Y-6.3576
X8.5766Y-6.6576
X8.6804Y-7.0849
X8.6804Y-7.3849
X8.9142Y-5.6677
X8.9142Y-5.9677
X9.0982Y-7.7743
X9.0982Y-8.0743
X9.3028Y-6.3576
X9.3028Y-6.6576
X9.4043Y-7.0849
X9.4043Y-7.3849
X9.6349Y-5.6677
X9.6349Y-5.9677
X9.8316Y-7.7743
X9.8316Y-8.0743
X10.029Y-6.3442
X10.029Y-6.6442
X10.1282Y-7.0849
X10.1282Y-7.3849
X10.3556Y-5.6677
X10.3556Y-5.9677
X10.565Y-7.7743
X10.565Y-8.0743
X10.7551Y-6.3485
X10.7551Y-6.6485
X10.8521Y-7.0849
X10.8521Y-7.3849
X11.0764Y-5.6677
X11.0764Y-5.9677
X11.1614Y-2.037
X11.1614Y-2.337
X11.1614Y-4.1276
X11.1614Y-4.4276
X11.1618Y-2.6849
X11.1618Y-2.9849
X11.2614Y-2.037
X11.2614Y-2.337
X11.2614Y-4.1276
X11.2614Y-4.4276
X11.2618Y-2.6849
X11.2618Y-2.9849
X11.2984Y-7.7928
X11.2984Y-8.0928
X11.3614Y-2.037
X11.3614Y-2.337
X11.3614Y-4.1276
X11.3614Y-4.4276
X11.3618Y-2.6849
X11.3618Y-2.9849
X11.4614Y-2.037
X11.4614Y-2.337
X11.4614Y-4.1276
X11.4614Y-4.4276
X11.4618Y-2.6849
X11.4618Y-2.9849
X11.4813Y-6.3576
X11.4813Y-6.6576
X11.5614Y-2.037
X11.5614Y-2.337
X11.5614Y-4.1276
X11.5614Y-4.4276
X11.5618Y-2.6849
X11.5618Y-2.9849
X11.576Y-7.0849
X11.576Y-7.3849
X11.6614Y-2.037
X11.6614Y-2.337
X11.6614Y-4.1276
X11.6614Y-4.4276
X11.6618Y-2.6849
X11.6618Y-2.9849
X11.7614Y-2.037
X11.7614Y-2.337
X11.7614Y-4.1276
X11.7614Y-4.4276
X11.7618Y-2.6849
X11.7618Y-2.9849
X11.8618Y-2.6849
X11.8618Y-2.9849
X11.8957Y-4.2213
X11.8957Y-4.3197
X11.902Y-2.1319
X11.902Y-2.2303
X12.0024Y-2.7795
X12.0024Y-2.878
X12.2008Y-7.7928
X12.2008Y-8.0928
X12.2075Y-5.6677
X12.2075Y-5.9677
X12.2075Y-6.3576
X12.2075Y-6.6576
X12.3602Y-2.037
X12.3602Y-2.337
X12.3602Y-2.6849
X12.3602Y-2.9849
X12.3602Y-3.3328
X12.3602Y-3.6328
X12.3602Y-3.9807
X12.3602Y-4.2807
X12.4602Y-2.037
X12.4602Y-2.337
X12.4602Y-2.6849
X12.4602Y-2.9849
X12.4602Y-3.3328
X12.4602Y-3.6328
X12.4602Y-3.9807
X12.4602Y-4.2807
X12.5602Y-2.037
X12.5602Y-2.337
X12.5602Y-2.6849
X12.5602Y-2.9849
X12.5602Y-3.3328
X12.5602Y-3.6328
X12.5602Y-3.9807
X12.5602Y-4.2807
X12.6602Y-2.037
X12.6602Y-2.337
X12.6602Y-2.6849
X12.6602Y-2.9849
X12.6602Y-3.3328
X12.6602Y-3.6328
X12.6602Y-3.9807
X12.6602Y-4.2807
X12.7602Y-2.037
X12.7602Y-2.337
X12.7602Y-2.6849
X12.7602Y-2.9849
X12.7602Y-3.3328
X12.7602Y-3.6328
X12.7602Y-3.9807
X12.7602Y-4.2807
X12.8602Y-2.037
X12.8602Y-2.337
X12.8602Y-2.6849
X12.8602Y-2.9849
X12.8602Y-3.3328
X12.8602Y-3.6328
X12.8602Y-3.9807
X12.8602Y-4.2807
X12.9232Y-8.4764
X12.9232Y-8.7764
X12.9256Y-7.7928
X12.9256Y-8.0928
X12.9272Y-7.0849
X12.9272Y-7.3849
X12.9602Y-2.037
X12.9602Y-2.337
X12.9602Y-2.6849
X12.9602Y-2.9849
X12.9602Y-3.3328
X12.9602Y-3.6328
X12.9602Y-3.9807
X12.9602Y-4.2807
X13.0602Y-2.037
X13.0602Y-2.337
X13.0602Y-2.6849
X13.0602Y-2.9849
X13.0602Y-3.3328
X13.0602Y-3.6328
X13.0602Y-3.9807
X13.0602Y-4.2807
X13.1602Y-2.037
X13.1602Y-2.337
X13.1602Y-2.6849
X13.1602Y-2.9849
X13.1602Y-3.3328
X13.1602Y-3.6328
X13.1602Y-3.9807
X13.1602Y-4.2807
X13.2602Y-2.037
X13.2602Y-2.337
X13.2602Y-2.6849
X13.2602Y-2.9849
X13.2602Y-3.3328
X13.2602Y-3.6328
X13.2602Y-3.9807
X13.2602Y-4.2807
X13.3976Y-2.1382
X13.3976Y-2.2366
X13.3976Y-2.7819
X13.3976Y-2.8803
X13.3976Y-3.4295
X13.3976Y-3.528
X13.3976Y-4.0799
X13.3976Y-4.1783
X13.648Y-7.7928
X13.648Y-8.0928
T4
X2.1154Y-2.4028
X2.1154Y-2.5028
X2.1154Y-3.8028
X2.1154Y-3.9028
X2.1154Y-4.0028
X2.1154Y-4.1028
X2.1154Y-4.2028
X2.1154Y-4.3028
X2.1154Y-4.4028
X2.1154Y-4.5028
X4.2154Y-4.9028
X4.3154Y-4.9028
X4.4154Y-4.9028
X4.7154Y-4.9028
X4.8154Y-4.9028
X4.9154Y-4.9028
X5.5154Y-2.4028
X5.5154Y-2.5028
X5.5154Y-2.6028
X5.5154Y-2.7028
X5.5154Y-2.8028
X5.5154Y-2.9028
X5.5154Y-3.0028
X5.5154Y-3.1028
X5.5154Y-3.2028
X5.5154Y-3.3028
X5.5154Y-3.4028
X5.5154Y-3.5028
X5.5154Y-3.6028
X5.5154Y-3.7028
X5.5154Y-3.8028
X5.5154Y-3.9028
X5.5154Y-4.1028
X5.5154Y-4.2028
X5.5154Y-4.3028
X5.5154Y-4.4028
X5.5154Y-4.5028
X5.5154Y-4.6028
X5.5154Y-4.7028
X6.5096Y-1.6844
X6.5096Y-1.7844
X6.5096Y-1.8844
X6.835Y-2.1752
X6.935Y-2.1752
X7.035Y-2.1752
X7.135Y-2.1752
X7.235Y-2.1752
X7.335Y-2.1752
X7.435Y-2.1752
X7.535Y-2.1752
X7.635Y-2.1752
X7.735Y-2.1752
X7.835Y-2.1752
X7.935Y-2.1752
X8.035Y-2.1752
X8.135Y-2.1752
X8.235Y-2.1752
X8.335Y-2.1752
X13.7713Y-2.0445
X13.7713Y-2.1445
X13.7713Y-2.5094
X13.7713Y-2.6094
X13.7713Y-2.7094
X13.7713Y-2.8094
X13.7713Y-2.9094
X13.7713Y-3.0094
X13.7713Y-3.1094
X13.7713Y-3.2094
X13.7713Y-3.5768
X13.7713Y-3.6768
X13.7713Y-3.7768
X13.7713Y-3.8768
X13.7713Y-3.9768
X13.7713Y-4.0768
X13.7713Y-4.1768
X13.7713Y-4.2768
X13.7713Y-4.6173
X13.7713Y-4.7173
T5
X1.8212Y-5.7189
X1.8212Y-5.9157
X1.8212Y-6.413
X1.8212Y-6.6098
X1.8212Y-7.115
X1.8212Y-7.3118
X1.8212Y-7.8232
X1.8212Y-8.0201
X1.8212Y-8.5138
X1.8212Y-8.7106
X2.3133Y-5.7189
X2.3133Y-5.9157
X2.3133Y-6.413
X2.3133Y-6.6098
X2.3133Y-7.115
X2.3133Y-7.3118
X2.3133Y-7.8232
X2.3133Y-8.0201
X2.3133Y-8.5138
X2.3133Y-8.7106
X2.5419Y-5.7189
X2.5419Y-5.9157
X2.6181Y-7.8232
X2.6181Y-8.0201
X2.6181Y-8.5138
X2.6181Y-8.7106
X2.8843Y-6.413
X2.8843Y-6.6098
X3.0051Y-7.115
X3.0051Y-7.3118
X3.0341Y-5.7189
X3.0341Y-5.9157
X3.1102Y-7.8232
X3.1102Y-8.0201
X3.1102Y-8.5138
X3.1102Y-8.7106
X3.2627Y-5.7189
X3.2627Y-5.9157
X3.3515Y-7.8232
X3.3515Y-8.0201
X3.3515Y-8.5138
X3.3515Y-8.7106
X3.3764Y-6.413
X3.3764Y-6.6098
X3.4972Y-7.115
X3.4972Y-7.3118
X3.6104Y-6.413
X3.6104Y-6.6098
X3.729Y-7.115
X3.729Y-7.3118
X3.7548Y-5.7189
X3.7548Y-5.9157
X3.8436Y-7.8232
X3.8436Y-8.0201
X3.8436Y-8.5138
X3.8436Y-8.7106
X3.9834Y-5.7189
X3.9834Y-5.9157
X4.0849Y-7.8232
X4.0849Y-8.0201
X4.0849Y-8.5283
X4.0849Y-8.7252
X4.1026Y-6.413
X4.1026Y-6.6098
X4.2211Y-7.115
X4.2211Y-7.3118
X4.3366Y-6.413
X4.3366Y-6.6098
X4.4529Y-7.115
X4.4529Y-7.3118
X4.4755Y-5.7189
X4.4755Y-5.9157
X4.577Y-7.8232
X4.577Y-8.0201
X4.577Y-8.5283
X4.577Y-8.7252
X4.7041Y-5.7189
X4.7041Y-5.9157
X4.8183Y-7.8232
X4.8183Y-8.0201
X4.8287Y-6.413
X4.8287Y-6.6098
X4.945Y-7.115
X4.945Y-7.3118
X5.0628Y-6.413
X5.0628Y-6.6098
X5.1768Y-7.115
X5.1768Y-7.3118
X5.1963Y-5.7189
X5.1963Y-5.9157
X5.3104Y-7.8232
X5.3104Y-8.0201
X5.4249Y-5.7189
X5.4249Y-5.9157
X5.5517Y-7.8232
X5.5517Y-8.0201
X5.5549Y-6.413
X5.5549Y-6.6098
X5.6689Y-7.115
X5.6689Y-7.3118
X5.7889Y-6.413
X5.7889Y-6.6098
X5.9007Y-7.115
X5.9007Y-7.3118
X5.917Y-5.7189
X5.917Y-5.9157
X6.0439Y-7.8232
X6.0439Y-8.0201
X6.1456Y-5.7189
X6.1456Y-5.9157
X6.2811Y-6.413
X6.2811Y-6.6098
X6.2811Y-8.5283
X6.2811Y-8.7252
X6.2852Y-7.8232
X6.2852Y-8.0201
X6.3928Y-7.115
X6.3928Y-7.3118
X6.5151Y-6.413
X6.5151Y-6.6098
X6.6246Y-7.115
X6.6246Y-7.3118
X6.6377Y-5.7189
X6.6377Y-5.9157
X6.7732Y-8.5283
X6.7732Y-8.7252
X6.7773Y-7.8232
X6.7773Y-8.0201
X6.8663Y-5.7189
X6.8663Y-5.9157
X7.0072Y-6.413
X7.0072Y-6.6098
X7.0186Y-7.8232
X7.0186Y-8.0201
X7.1167Y-7.115
X7.1167Y-7.3118
X7.2413Y-6.413
X7.2413Y-6.6098
X7.3485Y-7.115
X7.3485Y-7.3118
X7.3584Y-5.7189
X7.3584Y-5.9157
X7.5107Y-7.8232
X7.5107Y-8.0201
X7.587Y-5.7189
X7.587Y-5.9157
X7.7334Y-6.413
X7.7334Y-6.6098
X7.752Y-7.8232
X7.752Y-8.0201
X7.8406Y-7.115
X7.8406Y-7.3118
X7.9675Y-6.413
X7.9675Y-6.6098
X8.0724Y-7.115
X8.0724Y-7.3118
X8.0792Y-5.7189
X8.0792Y-5.9157
X8.2441Y-7.8232
X8.2441Y-8.0201
X8.3078Y-5.7189
X8.3078Y-5.9157
X8.4596Y-6.413
X8.4596Y-6.6098
X8.4854Y-7.8232
X8.4854Y-8.0201
X8.5645Y-7.115
X8.5645Y-7.3118
X8.6936Y-6.413
X8.6936Y-6.6098
X8.7963Y-7.115
X8.7963Y-7.3118
X8.7999Y-5.7189
X8.7999Y-5.9157
X8.9775Y-7.8232
X8.9775Y-8.0201
X9.0285Y-5.7189
X9.0285Y-5.9157
X9.1858Y-6.413
X9.1858Y-6.6098
X9.2188Y-7.8232
X9.2188Y-8.0201
X9.2884Y-7.115
X9.2884Y-7.3118
X9.4198Y-6.413
X9.4198Y-6.6098
X9.5202Y-7.115
X9.5202Y-7.3118
X9.5206Y-5.7189
X9.5206Y-5.9157
X9.7109Y-7.8232
X9.7109Y-8.0201
X9.7492Y-5.7189
X9.7492Y-5.9157
X9.9119Y-6.413
X9.9119Y-6.6098
X9.9522Y-7.8232
X9.9522Y-8.0201
X10.0123Y-7.115
X10.0123Y-7.3118
X10.146Y-6.413
X10.146Y-6.6098
X10.2413Y-5.7189
X10.2413Y-5.9157
X10.2441Y-7.115
X10.2441Y-7.3118
X10.4444Y-7.8232
X10.4444Y-8.0201
X10.47Y-5.7189
X10.47Y-5.9157
X10.6381Y-6.413
X10.6381Y-6.6098
X10.6857Y-7.8232
X10.6857Y-8.0201
X10.7362Y-7.115
X10.7362Y-7.3118
X10.8722Y-6.413
X10.8722Y-6.6098
X10.9621Y-5.7189
X10.9621Y-5.9157
X10.968Y-7.115
X10.968Y-7.3118
X11.1778Y-7.8232
X11.1778Y-8.0201
X11.3643Y-6.413
X11.3643Y-6.6098
X11.4601Y-7.115
X11.4601Y-7.3118
X11.594Y-7.8232
X11.594Y-8.0201
X11.5983Y-6.413
X11.5983Y-6.6098
X11.6016Y-5.7189
X11.6016Y-5.9157
X12.0861Y-7.8232
X12.0861Y-8.0201
X12.0905Y-6.413
X12.0905Y-6.6098
X12.0937Y-5.7189
X12.0937Y-5.9157
X12.3173Y-7.115
X12.3173Y-7.3118
X12.3173Y-7.8232
X12.3173Y-8.0201
X12.3173Y-8.5283
X12.3173Y-8.7252
X12.8094Y-7.115
X12.8094Y-7.3118
X12.8094Y-7.8232
X12.8094Y-8.0201
X12.8094Y-8.5283
X12.8094Y-8.7252
X13.0406Y-7.8232
X13.0406Y-8.0201
X13.5327Y-7.8232
X13.5327Y-8.0201
M30
