M48
; DRILL file {KiCad 7.0.10} date Tuesday, May 20, 2025 at 06:51:50 AM
; FORMAT={-:-/ absolute / inch / decimal}
; #@! TF.CreationDate,2025-05-20T06:51:50+01:00
; #@! TF.GenerationSoftware,Kicad,Pcbnew,7.0.10
; #@! TF.FileFunction,Plated,1,2,PTH
FMAT,2
INCH
; #@! TA.AperFunction,Plated,PTH,ViaDrill
T1C0.0157
; #@! TA.AperFunction,Plated,PTH,ComponentDrill
T2C0.0276
; #@! TA.AperFunction,Plated,PTH,ComponentDrill
T3C0.0315
; #@! TA.AperFunction,Plated,PTH,ComponentDrill
T4C0.0394
; #@! TA.AperFunction,Plated,PTH,ComponentDrill
T5C0.0591
%
G90
G05
T1
X6.61Y-3.88
X6.77Y-3.88
X7.57Y-4.3649
X7.57Y-4.5481
X7.62Y-4.3985
X7.62Y-4.5481
X7.69Y-3.11
X7.7Y-4.4556
X7.8452Y-4.4552
X7.97Y-5.36
X7.97Y-5.49
X8.01Y-5.46
X8.0102Y-5.3602
X8.05Y-5.36
X8.05Y-5.43
X8.13Y-5.61
X8.1302Y-5.3602
X8.17Y-5.36
X8.17Y-5.58
X8.21Y-5.36
X8.21Y-5.55
X8.25Y-2.43
X8.25Y-5.36
X8.25Y-5.52
X8.45Y-2.43
X8.59Y-3.4
X8.64Y-3.26
X8.78Y-5.4
X9.43Y-3.35
X9.47Y-3.3
X9.52Y-3.25
X9.53Y-5.43
X9.59Y-3.35
X9.63Y-3.3
X9.68Y-3.2502
X9.79Y-4.84
X9.79Y-4.97
X10.28Y-5.46
X10.34Y-3.18
X10.34Y-3.26
X10.8Y-3.79
X10.88Y-4.39
X10.92Y-4.39
X11.0Y-3.79
X11.03Y-5.49
X11.32Y-2.79
X11.43Y-2.79
X11.71Y-3.01
X11.78Y-5.52
X11.79Y-2.93
X11.81Y-4.33
X12.15Y-2.41
X12.26Y-5.28
X12.2603Y-3.11
X12.27Y-4.63
X12.28Y-5.18
X12.3199Y-3.28
X12.355Y-2.425
X12.4199Y-3.11
X12.42Y-4.47
X12.45Y-4.6
X12.46Y-5.27
X12.4642Y-3.11
X12.48Y-5.16
X12.52Y-5.5515
X12.53Y-2.45
X12.6199Y-3.11
X12.66Y-5.3
X12.6603Y-3.11
X12.69Y-5.14
X12.8199Y-3.11
X12.97Y-3.06
X13.01Y-5.12
X13.01Y-5.26
X13.28Y-3.83
X13.28Y-5.5792
X13.34Y-3.77
X13.39Y-5.1
X13.39Y-5.27
X13.46Y-4.06
X13.48Y-4.23
X13.48Y-4.33
X13.64Y-4.92
X13.64Y-5.04
X14.05Y-3.74
X14.0817Y-3.99
X14.09Y-3.8
X14.1Y-3.88
T2
X9.2225Y-3.163
X9.5225Y-3.163
X10.99Y-3.89
X10.99Y-4.19
X11.09Y-3.89
X11.09Y-4.19
X11.19Y-3.89
X11.19Y-4.19
X11.29Y-3.89
X11.29Y-4.19
X11.39Y-3.89
X11.39Y-4.19
X11.49Y-3.89
X11.49Y-4.19
X11.59Y-3.89
X11.59Y-4.19
X11.69Y-3.89
X11.69Y-4.19
T3
X2.5Y-5.6752
X2.5005Y-6.4252
X2.5026Y-7.1754
X2.5026Y-7.9256
X2.8Y-5.6752
X2.8005Y-6.4252
X2.8026Y-7.1754
X2.8026Y-7.9256
X3.2498Y-5.6752
X3.2503Y-6.4252
X3.2524Y-7.1754
X3.2524Y-7.9256
X3.5498Y-5.6752
X3.5503Y-6.4252
X3.5524Y-7.1754
X3.5524Y-7.9256
X3.9995Y-5.6752
X4.0001Y-6.4252
X4.0021Y-7.1754
X4.0021Y-7.9256
X4.2995Y-5.6752
X4.3001Y-6.4252
X4.3021Y-7.1754
X4.3021Y-7.9256
X4.7493Y-5.6752
X4.7499Y-6.4252
X4.7519Y-7.1754
X4.7519Y-7.9256
X5.0493Y-5.6752
X5.0499Y-6.4252
X5.0519Y-7.1754
X5.0519Y-7.9256
X5.4991Y-5.6752
X5.4996Y-6.4252
X5.5017Y-7.1754
X5.5017Y-7.9256
X5.7991Y-5.6752
X5.7996Y-6.4252
X5.8017Y-7.1754
X5.8017Y-7.9256
X6.2489Y-5.6752
X6.2494Y-6.4252
X6.2515Y-7.1754
X6.2515Y-7.9256
X6.5489Y-5.6752
X6.5494Y-6.4252
X6.5515Y-7.1754
X6.5515Y-7.9256
X6.9986Y-5.6752
X6.9992Y-6.4252
X7.0012Y-7.1754
X7.0012Y-7.9256
X7.2986Y-5.6752
X7.2992Y-6.4252
X7.3012Y-7.1754
X7.3012Y-7.9256
X7.7484Y-5.6752
X7.749Y-6.4252
X7.751Y-7.1754
X7.751Y-7.9256
X8.0484Y-5.6752
X8.049Y-6.4252
X8.051Y-7.1754
X8.051Y-7.9256
X8.4982Y-5.6752
X8.4987Y-6.4252
X8.5008Y-7.1754
X8.5008Y-7.9256
X8.7982Y-5.6752
X8.7987Y-6.4252
X8.8008Y-7.1754
X8.8008Y-7.9256
X9.248Y-5.6752
X9.2485Y-6.4252
X9.2506Y-7.1754
X9.2506Y-7.9256
X9.548Y-5.6752
X9.5485Y-6.4252
X9.5506Y-7.1754
X9.5506Y-7.9256
X9.9977Y-5.6752
X9.9983Y-6.4252
X10.0003Y-7.1754
X10.0003Y-7.9256
X10.2977Y-5.6752
X10.2983Y-6.4252
X10.3003Y-7.1754
X10.3003Y-7.9256
X10.7475Y-5.6752
X10.7481Y-6.4252
X10.7501Y-7.1754
X10.7501Y-7.9256
X10.9654Y-2.5858
X10.9654Y-2.8858
X10.9657Y-3.2337
X10.9657Y-3.5337
X11.0402Y-4.5655
X11.0402Y-4.8655
X11.0475Y-5.6752
X11.0481Y-6.4252
X11.0501Y-7.1754
X11.0501Y-7.9256
X11.0654Y-2.5858
X11.0654Y-2.8858
X11.0657Y-3.2337
X11.0657Y-3.5337
X11.1402Y-4.5655
X11.1402Y-4.8655
X11.1654Y-2.5858
X11.1654Y-2.8858
X11.1657Y-3.2337
X11.1657Y-3.5337
X11.2402Y-4.5655
X11.2402Y-4.8655
X11.2654Y-2.5858
X11.2654Y-2.8858
X11.2657Y-3.2337
X11.2657Y-3.5337
X11.3402Y-4.5655
X11.3402Y-4.8655
X11.3654Y-2.5858
X11.3654Y-2.8858
X11.3657Y-3.2337
X11.3657Y-3.5337
X11.4402Y-4.5655
X11.4402Y-4.8655
X11.4654Y-2.5858
X11.4654Y-2.8858
X11.4657Y-3.2337
X11.4657Y-3.5337
X11.4973Y-5.6752
X11.4978Y-6.4252
X11.4999Y-7.1754
X11.4999Y-7.9256
X11.5402Y-4.5655
X11.5402Y-4.8655
X11.5654Y-2.5858
X11.5654Y-2.8858
X11.5657Y-3.2337
X11.5657Y-3.5337
X11.6402Y-4.5655
X11.6402Y-4.8655
X11.6657Y-3.2337
X11.6657Y-3.5337
X11.7059Y-2.6807
X11.7059Y-2.7791
X11.7744Y-4.6592
X11.7744Y-4.7576
X11.7973Y-5.6752
X11.7978Y-6.4252
X11.7999Y-7.1754
X11.7999Y-7.9256
X11.8063Y-3.3283
X11.8063Y-3.4268
X12.1642Y-2.5858
X12.1642Y-2.8858
X12.1642Y-3.2337
X12.1642Y-3.5337
X12.1642Y-3.8816
X12.1642Y-4.1816
X12.1642Y-4.5295
X12.1642Y-4.8295
X12.2471Y-5.6752
X12.2476Y-6.4252
X12.2497Y-7.1754
X12.2497Y-7.9256
X12.2642Y-2.5858
X12.2642Y-2.8858
X12.2642Y-3.2337
X12.2642Y-3.5337
X12.2642Y-3.8816
X12.2642Y-4.1816
X12.2642Y-4.5295
X12.2642Y-4.8295
X12.3642Y-2.5858
X12.3642Y-2.8858
X12.3642Y-3.2337
X12.3642Y-3.5337
X12.3642Y-3.8816
X12.3642Y-4.1816
X12.3642Y-4.5295
X12.3642Y-4.8295
X12.4642Y-2.5858
X12.4642Y-2.8858
X12.4642Y-3.2337
X12.4642Y-3.5337
X12.4642Y-3.8816
X12.4642Y-4.1816
X12.4642Y-4.5295
X12.4642Y-4.8295
X12.5471Y-5.6752
X12.5476Y-6.4252
X12.5497Y-7.1754
X12.5497Y-7.9256
X12.5642Y-2.5858
X12.5642Y-2.8858
X12.5642Y-3.2337
X12.5642Y-3.5337
X12.5642Y-3.8816
X12.5642Y-4.1816
X12.5642Y-4.5295
X12.5642Y-4.8295
X12.6642Y-2.5858
X12.6642Y-2.8858
X12.6642Y-3.2337
X12.6642Y-3.5337
X12.6642Y-3.8816
X12.6642Y-4.1816
X12.6642Y-4.5295
X12.6642Y-4.8295
X12.7642Y-2.5858
X12.7642Y-2.8858
X12.7642Y-3.2337
X12.7642Y-3.5337
X12.7642Y-3.8816
X12.7642Y-4.1816
X12.7642Y-4.5295
X12.7642Y-4.8295
X12.8642Y-2.5858
X12.8642Y-2.8858
X12.8642Y-3.2337
X12.8642Y-3.5337
X12.8642Y-3.8816
X12.8642Y-4.1816
X12.8642Y-4.5295
X12.8642Y-4.8295
X12.9642Y-2.5858
X12.9642Y-2.8858
X12.9642Y-3.2337
X12.9642Y-3.5337
X12.9642Y-3.8816
X12.9642Y-4.1816
X12.9642Y-4.5295
X12.9642Y-4.8295
X12.9968Y-5.6752
X12.9974Y-6.4252
X12.9994Y-7.1754
X12.9994Y-7.9256
X13.0642Y-2.5858
X13.0642Y-2.8858
X13.0642Y-3.2337
X13.0642Y-3.5337
X13.0642Y-3.8816
X13.0642Y-4.1816
X13.0642Y-4.5295
X13.0642Y-4.8295
X13.2Y-2.7916
X13.2Y-2.89
X13.2Y-3.4416
X13.2Y-3.54
X13.2016Y-4.0816
X13.2016Y-4.18
X13.2016Y-4.53
X13.2016Y-4.6284
X13.2968Y-5.6752
X13.2974Y-6.4252
X13.2994Y-7.1754
X13.2994Y-7.9256
X13.7466Y-5.6752
X13.7472Y-6.4252
X13.7492Y-7.1754
X13.7492Y-7.9256
X13.9613Y-3.42
X14.04Y-3.42
X14.0466Y-5.6752
X14.0472Y-6.4252
X14.0492Y-7.1754
X14.0492Y-7.9256
T4
X2.5733Y-2.6649
X2.5733Y-2.7649
X2.5733Y-4.0649
X2.5733Y-4.1649
X2.5733Y-4.2649
X2.5733Y-4.3649
X2.5733Y-4.4649
X2.5733Y-4.5649
X2.5733Y-4.6649
X2.5733Y-4.7649
X4.6733Y-5.1649
X4.7733Y-5.1649
X4.8733Y-5.1649
X5.1733Y-5.1649
X5.2733Y-5.1649
X5.3733Y-5.1649
X5.9733Y-2.6649
X5.9733Y-2.7649
X5.9733Y-2.8649
X5.9733Y-2.9649
X5.9733Y-3.0649
X5.9733Y-3.1649
X5.9733Y-3.2649
X5.9733Y-3.3649
X5.9733Y-3.4649
X5.9733Y-3.5649
X5.9733Y-3.6649
X5.9733Y-3.7649
X5.9733Y-3.8649
X5.9733Y-3.9649
X5.9733Y-4.0649
X5.9733Y-4.1649
X5.9733Y-4.3649
X5.9733Y-4.4649
X5.9733Y-4.5649
X5.9733Y-4.6649
X5.9733Y-4.7649
X5.9733Y-4.8649
X5.9733Y-4.9649
X6.6Y-2.5301
X6.7Y-2.5301
X6.8Y-2.5301
X6.9Y-2.5301
X7.0Y-2.5301
X7.0766Y-3.2049
X7.1Y-2.5301
X7.1766Y-3.2049
X7.2Y-2.5301
X7.2766Y-3.2049
X7.3Y-2.5301
X7.3766Y-3.2049
X7.4Y-2.5301
X7.4766Y-3.2049
X7.5Y-2.5301
X7.5766Y-3.2049
X7.6Y-2.5301
X7.6766Y-3.2049
X7.7Y-2.5301
X7.7766Y-3.2049
X7.8Y-2.5301
X7.8766Y-3.2049
X7.9Y-2.5301
X7.9766Y-3.2049
X8.0Y-2.5301
X8.0766Y-3.2049
X8.1Y-2.5301
X8.1766Y-3.2049
X8.2766Y-3.2049
X8.3766Y-3.2049
X8.4766Y-3.2049
X8.4943Y-2.5272
X8.5766Y-3.2049
X8.5943Y-2.5272
X8.6943Y-2.5272
X8.7943Y-2.5272
X8.8943Y-2.5272
X8.9943Y-2.5272
X9.0943Y-2.5272
X9.1943Y-2.5272
X9.2943Y-2.5272
X9.3943Y-2.5272
X9.4943Y-2.5272
X9.5943Y-2.5272
X9.6943Y-2.5272
X9.7943Y-2.5272
X9.8943Y-2.5272
X9.95Y-2.88
X9.9943Y-2.5272
X10.05Y-2.88
X10.15Y-2.88
X10.4206Y-2.719
X10.5206Y-2.719
X10.6206Y-2.719
X13.74Y-2.9
X13.74Y-3.0
X13.74Y-3.1
X13.7402Y-3.937
X13.7402Y-4.037
X13.7402Y-4.137
X13.7402Y-4.237
X13.7402Y-4.337
X13.7402Y-4.437
X13.7402Y-4.537
X13.7402Y-4.637
X13.7402Y-4.737
X13.7402Y-4.837
X13.8Y-2.5272
X13.8402Y-3.937
X13.8402Y-4.037
X13.8402Y-4.137
X13.8402Y-4.237
X13.8402Y-4.337
X13.8402Y-4.437
X13.8402Y-4.537
X13.8402Y-4.637
X13.8402Y-4.737
X13.8402Y-4.837
X13.9Y-2.5272
X14.0Y-2.5272
T5
X2.5Y-5.95
X2.5Y-6.7
X2.5Y-7.45
X2.5Y-8.2
X2.75Y-5.85
X2.75Y-6.6
X2.75Y-7.35
X2.75Y-8.1
X3.25Y-5.95
X3.25Y-6.7
X3.25Y-7.45
X3.25Y-8.2
X3.5Y-5.85
X3.5Y-6.6
X3.5Y-7.35
X3.5Y-8.1
X4.0Y-5.95
X4.0Y-6.7
X4.0Y-7.45
X4.0Y-8.2
X4.25Y-5.85
X4.25Y-6.6
X4.25Y-7.35
X4.25Y-8.1
X4.75Y-5.95
X4.75Y-6.7
X4.75Y-7.45
X4.75Y-8.2
X5.0Y-5.85
X5.0Y-6.6
X5.0Y-7.35
X5.0Y-8.1
X5.5Y-5.95
X5.5Y-6.7
X5.5Y-7.45
X5.5Y-8.2
X5.75Y-5.85
X5.75Y-6.6
X5.75Y-7.35
X5.75Y-8.1
X6.25Y-5.95
X6.25Y-6.7
X6.25Y-7.45
X6.25Y-8.2
X6.5Y-5.85
X6.5Y-6.6
X6.5Y-7.35
X6.5Y-8.1
X7.0Y-5.95
X7.0Y-6.7
X7.0Y-7.45
X7.0Y-8.2
X7.25Y-5.85
X7.25Y-6.6
X7.25Y-7.35
X7.25Y-8.1
X7.75Y-5.95
X7.75Y-6.7
X7.75Y-7.45
X7.75Y-8.2
X8.0Y-5.85
X8.0Y-6.6
X8.0Y-7.35
X8.0Y-8.1
X8.5Y-5.95
X8.5Y-6.7
X8.5Y-7.45
X8.5Y-8.2
X8.75Y-5.85
X8.75Y-6.6
X8.75Y-7.35
X8.75Y-8.1
X9.25Y-5.95
X9.25Y-6.7
X9.25Y-7.45
X9.25Y-8.2
X9.5Y-5.85
X9.5Y-6.6
X9.5Y-7.35
X9.5Y-8.1
X10.0Y-5.95
X10.0Y-6.7
X10.0Y-7.45
X10.0Y-8.2
X10.25Y-5.85
X10.25Y-6.6
X10.25Y-7.35
X10.25Y-8.1
X10.75Y-5.95
X10.75Y-6.7
X10.75Y-7.45
X10.75Y-8.2
X11.0Y-5.85
X11.0Y-6.6
X11.0Y-7.35
X11.0Y-8.1
X11.5Y-5.95
X11.5Y-6.7
X11.5Y-7.45
X11.5Y-8.2
X11.75Y-5.85
X11.75Y-6.6
X11.75Y-7.35
X11.75Y-8.1
X12.25Y-5.95
X12.25Y-6.7
X12.25Y-7.45
X12.25Y-8.2
X12.5Y-5.85
X12.5Y-6.6
X12.5Y-7.35
X12.5Y-8.1
X13.0Y-5.95
X13.0Y-6.7
X13.0Y-7.45
X13.0Y-8.2
X13.25Y-5.85
X13.25Y-6.6
X13.25Y-7.35
X13.25Y-8.1
X13.75Y-5.95
X13.75Y-6.7
X13.75Y-7.45
X13.75Y-8.2
X14.0Y-5.85
X14.0Y-6.6
X14.0Y-7.35
X14.0Y-8.1
M30
