%TF.GenerationSoftware,KiCad,Pcbnew,7.0.10*%
%TF.CreationDate,2025-05-20T06:51:38+01:00*%
%TF.ProjectId,BeanBoard,4265616e-426f-4617-9264-2e6b69636164,rev?*%
%TF.SameCoordinates,Original*%
%TF.FileFunction,Soldermask,Top*%
%TF.FilePolarity,Negative*%
%FSLAX46Y46*%
G04 Gerber Fmt 4.6, Leading zero omitted, Abs format (unit mm)*
G04 Created by KiCad (PCBNEW 7.0.10) date 2025-05-20 06:51:38*
%MOMM*%
%LPD*%
G01*
G04 APERTURE LIST*
%ADD10R,1.700000X1.700000*%
%ADD11O,1.700000X1.700000*%
%ADD12C,1.400000*%
%ADD13O,1.400000X1.400000*%
%ADD14C,1.700000*%
%ADD15C,4.000000*%
%ADD16C,2.200000*%
%ADD17R,1.600000X1.600000*%
%ADD18O,1.600000X1.600000*%
%ADD19C,1.600000*%
G04 APERTURE END LIST*
D10*
%TO.C,J1*%
X151721251Y-105788585D03*
D11*
X151721251Y-103248585D03*
X151721251Y-100708585D03*
X151721251Y-98168585D03*
X151721251Y-95628585D03*
X151721251Y-93088585D03*
X151721251Y-90548585D03*
X151721251Y-88008585D03*
X151721251Y-85468585D03*
X151721251Y-82928585D03*
X151721251Y-80388585D03*
X151721251Y-77848585D03*
X151721251Y-75308585D03*
X151721251Y-72768585D03*
X151721251Y-70228585D03*
X151721251Y-67688585D03*
%TD*%
D12*
%TO.C,R8*%
X289306000Y-98806000D03*
D13*
X289306000Y-106426000D03*
%TD*%
D14*
%TO.C,SW15*%
X309880000Y-153670000D03*
D15*
X314960000Y-153670000D03*
D14*
X320040000Y-153670000D03*
D16*
X317500000Y-148590000D03*
X311150000Y-151130000D03*
%TD*%
D17*
%TO.C,U4*%
X331830000Y-82136666D03*
D18*
X329290000Y-82136666D03*
X326750000Y-82136666D03*
X324210000Y-82136666D03*
X321670000Y-82136666D03*
X319130000Y-82136666D03*
X316590000Y-82136666D03*
X314050000Y-82136666D03*
X311510000Y-82136666D03*
X308970000Y-82136666D03*
X308970000Y-89756666D03*
X311510000Y-89756666D03*
X314050000Y-89756666D03*
X316590000Y-89756666D03*
X319130000Y-89756666D03*
X321670000Y-89756666D03*
X324210000Y-89756666D03*
X326750000Y-89756666D03*
X329290000Y-89756666D03*
X331830000Y-89756666D03*
%TD*%
D14*
%TO.C,SW63*%
X119380000Y-210820000D03*
D15*
X124460000Y-210820000D03*
D14*
X129540000Y-210820000D03*
D16*
X127000000Y-205740000D03*
X120650000Y-208280000D03*
%TD*%
D17*
%TO.C,D16*%
X337739962Y-144149733D03*
D18*
X330119962Y-144149733D03*
%TD*%
D19*
%TO.C,C7*%
X335320000Y-115062000D03*
X335320000Y-117562000D03*
%TD*%
D14*
%TO.C,SW51*%
X233680000Y-191770000D03*
D15*
X238760000Y-191770000D03*
D14*
X243840000Y-191770000D03*
D16*
X241300000Y-186690000D03*
X234950000Y-189230000D03*
%TD*%
D17*
%TO.C,D61*%
X90229978Y-201309476D03*
D18*
X82609978Y-201309476D03*
%TD*%
D17*
%TO.C,D13*%
X280607113Y-144149733D03*
D18*
X272987113Y-144149733D03*
%TD*%
D17*
%TO.C,D43*%
X128318544Y-182254820D03*
D18*
X120698544Y-182254820D03*
%TD*%
D12*
%TO.C,R7*%
X291846000Y-98806000D03*
D13*
X291846000Y-106426000D03*
%TD*%
D17*
%TO.C,U3*%
X331830000Y-98593332D03*
D18*
X329290000Y-98593332D03*
X326750000Y-98593332D03*
X324210000Y-98593332D03*
X321670000Y-98593332D03*
X319130000Y-98593332D03*
X316590000Y-98593332D03*
X314050000Y-98593332D03*
X311510000Y-98593332D03*
X308970000Y-98593332D03*
X308970000Y-106213332D03*
X311510000Y-106213332D03*
X314050000Y-106213332D03*
X316590000Y-106213332D03*
X319130000Y-106213332D03*
X321670000Y-106213332D03*
X324210000Y-106213332D03*
X326750000Y-106213332D03*
X329290000Y-106213332D03*
X331830000Y-106213332D03*
%TD*%
D17*
%TO.C,D12*%
X261562830Y-144149733D03*
D18*
X253942830Y-144149733D03*
%TD*%
D10*
%TO.C,J11*%
X215754710Y-64191741D03*
D11*
X218294710Y-64191741D03*
X220834710Y-64191741D03*
X223374710Y-64191741D03*
X225914710Y-64191741D03*
X228454710Y-64191741D03*
X230994710Y-64191741D03*
X233534710Y-64191741D03*
X236074710Y-64191741D03*
X238614710Y-64191741D03*
X241154710Y-64191741D03*
X243694710Y-64191741D03*
X246234710Y-64191741D03*
X248774710Y-64191741D03*
X251314710Y-64191741D03*
X253854710Y-64191741D03*
%TD*%
D19*
%TO.C,C6*%
X335320000Y-103672000D03*
X335320000Y-106172000D03*
%TD*%
D17*
%TO.C,D35*%
X318709249Y-163199733D03*
D18*
X311089249Y-163199733D03*
%TD*%
D14*
%TO.C,SW17*%
X347980000Y-153670000D03*
D15*
X353060000Y-153670000D03*
D14*
X358140000Y-153670000D03*
D16*
X355600000Y-148590000D03*
X349250000Y-151130000D03*
%TD*%
D10*
%TO.C,J3*%
X151721251Y-110868585D03*
D11*
X151721251Y-113408585D03*
X151721251Y-115948585D03*
X151721251Y-118488585D03*
X151721251Y-121028585D03*
X151721251Y-123568585D03*
X151721251Y-126108585D03*
%TD*%
D19*
%TO.C,C4*%
X299880000Y-84540000D03*
X299880000Y-87040000D03*
%TD*%
D17*
%TO.C,D50*%
X223539959Y-182254820D03*
D18*
X215919959Y-182254820D03*
%TD*%
D14*
%TO.C,SW35*%
X309880000Y-172720000D03*
D15*
X314960000Y-172720000D03*
D14*
X320040000Y-172720000D03*
D16*
X317500000Y-167640000D03*
X311150000Y-170180000D03*
%TD*%
D17*
%TO.C,D02*%
X109208566Y-144149733D03*
D18*
X101588566Y-144149733D03*
%TD*%
D17*
%TO.C,D45*%
X166407110Y-182254820D03*
D18*
X158787110Y-182254820D03*
%TD*%
D17*
%TO.C,D04*%
X147297132Y-144149733D03*
D18*
X139677132Y-144149733D03*
%TD*%
D10*
%TO.C,RV1*%
X348996000Y-73660000D03*
D11*
X348996000Y-76200000D03*
X348996000Y-78740000D03*
%TD*%
D14*
%TO.C,SW20*%
X62230000Y-172720000D03*
D15*
X67310000Y-172720000D03*
D14*
X72390000Y-172720000D03*
D16*
X69850000Y-167640000D03*
X63500000Y-170180000D03*
%TD*%
D14*
%TO.C,SW73*%
X271780000Y-210820000D03*
D15*
X276860000Y-210820000D03*
D14*
X281940000Y-210820000D03*
D16*
X279400000Y-205740000D03*
X273050000Y-208280000D03*
%TD*%
D14*
%TO.C,SW32*%
X252730000Y-172720000D03*
D15*
X257810000Y-172720000D03*
D14*
X262890000Y-172720000D03*
D16*
X260350000Y-167640000D03*
X254000000Y-170180000D03*
%TD*%
D14*
%TO.C,SW31*%
X233680000Y-172720000D03*
D15*
X238760000Y-172720000D03*
D14*
X243840000Y-172720000D03*
D16*
X241300000Y-167640000D03*
X234950000Y-170180000D03*
%TD*%
D10*
%TO.C,J5*%
X131401251Y-131188585D03*
D11*
X133941251Y-131188585D03*
X136481251Y-131188585D03*
%TD*%
D14*
%TO.C,SW34*%
X290830000Y-172720000D03*
D15*
X295910000Y-172720000D03*
D14*
X300990000Y-172720000D03*
D16*
X298450000Y-167640000D03*
X292100000Y-170180000D03*
%TD*%
D14*
%TO.C,SW46*%
X176530000Y-191770000D03*
D15*
X181610000Y-191770000D03*
D14*
X186690000Y-191770000D03*
D16*
X184150000Y-186690000D03*
X177800000Y-189230000D03*
%TD*%
D14*
%TO.C,SW70*%
X214630000Y-210820000D03*
D15*
X219710000Y-210820000D03*
D14*
X224790000Y-210820000D03*
D16*
X222250000Y-205740000D03*
X215900000Y-208280000D03*
%TD*%
D14*
%TO.C,SW41*%
X81280000Y-191770000D03*
D15*
X86360000Y-191770000D03*
D14*
X91440000Y-191770000D03*
D16*
X88900000Y-186690000D03*
X82550000Y-189230000D03*
%TD*%
D10*
%TO.C,J13*%
X264683000Y-69063000D03*
D11*
X267223000Y-69063000D03*
X269763000Y-69063000D03*
%TD*%
D14*
%TO.C,SW30*%
X214630000Y-172720000D03*
D15*
X219710000Y-172720000D03*
D14*
X224790000Y-172720000D03*
D16*
X222250000Y-167640000D03*
X215900000Y-170180000D03*
%TD*%
D12*
%TO.C,R5*%
X296926000Y-98806000D03*
D13*
X296926000Y-106426000D03*
%TD*%
D17*
%TO.C,D70*%
X223539959Y-201309476D03*
D18*
X215919959Y-201309476D03*
%TD*%
D17*
%TO.C,D75*%
X318761374Y-201309476D03*
D18*
X311141374Y-201309476D03*
%TD*%
D17*
%TO.C,D36*%
X337753532Y-163199733D03*
D18*
X330133532Y-163199733D03*
%TD*%
D12*
%TO.C,R9*%
X234250536Y-80339768D03*
D13*
X241870536Y-80339768D03*
%TD*%
D17*
%TO.C,D31*%
X242532117Y-163199733D03*
D18*
X234912117Y-163199733D03*
%TD*%
D17*
%TO.C,D54*%
X299717091Y-182254820D03*
D18*
X292097091Y-182254820D03*
%TD*%
D17*
%TO.C,U7*%
X293760000Y-65680000D03*
D18*
X291220000Y-65680000D03*
X288680000Y-65680000D03*
X286140000Y-65680000D03*
X283600000Y-65680000D03*
X281060000Y-65680000D03*
X278520000Y-65680000D03*
X278520000Y-73300000D03*
X281060000Y-73300000D03*
X283600000Y-73300000D03*
X286140000Y-73300000D03*
X288680000Y-73300000D03*
X291220000Y-73300000D03*
X293760000Y-73300000D03*
%TD*%
D14*
%TO.C,SW66*%
X176530000Y-210820000D03*
D15*
X181610000Y-210820000D03*
D14*
X186690000Y-210820000D03*
D16*
X184150000Y-205740000D03*
X177800000Y-208280000D03*
%TD*%
D14*
%TO.C,SW76*%
X328930000Y-210820000D03*
D15*
X334010000Y-210820000D03*
D14*
X339090000Y-210820000D03*
D16*
X336550000Y-205740000D03*
X330200000Y-208280000D03*
%TD*%
D14*
%TO.C,SW13*%
X271780000Y-153670000D03*
D15*
X276860000Y-153670000D03*
D14*
X281940000Y-153670000D03*
D16*
X279400000Y-148590000D03*
X273050000Y-151130000D03*
%TD*%
D17*
%TO.C,D01*%
X90164283Y-144149733D03*
D18*
X82544283Y-144149733D03*
%TD*%
D14*
%TO.C,SW52*%
X252730000Y-191770000D03*
D15*
X257810000Y-191770000D03*
D14*
X262890000Y-191770000D03*
D16*
X260350000Y-186690000D03*
X254000000Y-189230000D03*
%TD*%
D17*
%TO.C,D56*%
X337805657Y-182254820D03*
D18*
X330185657Y-182254820D03*
%TD*%
D14*
%TO.C,SW23*%
X119380000Y-172720000D03*
D15*
X124460000Y-172720000D03*
D14*
X129540000Y-172720000D03*
D16*
X127000000Y-167640000D03*
X120650000Y-170180000D03*
%TD*%
D14*
%TO.C,SW00*%
X62230000Y-153670000D03*
D15*
X67310000Y-153670000D03*
D14*
X72390000Y-153670000D03*
D16*
X69850000Y-148590000D03*
X63500000Y-151130000D03*
%TD*%
D17*
%TO.C,D74*%
X299717091Y-201309476D03*
D18*
X292097091Y-201309476D03*
%TD*%
D10*
%TO.C,J7*%
X179746175Y-81403585D03*
D11*
X182286175Y-81403585D03*
X184826175Y-81403585D03*
X187366175Y-81403585D03*
X189906175Y-81403585D03*
X192446175Y-81403585D03*
X194986175Y-81403585D03*
X197526175Y-81403585D03*
X200066175Y-81403585D03*
X202606175Y-81403585D03*
X205146175Y-81403585D03*
X207686175Y-81403585D03*
X210226175Y-81403585D03*
X212766175Y-81403585D03*
X215306175Y-81403585D03*
X217846175Y-81403585D03*
%TD*%
D17*
%TO.C,D15*%
X318695679Y-144149733D03*
D18*
X311075679Y-144149733D03*
%TD*%
D17*
%TO.C,D47*%
X204495676Y-182254820D03*
D18*
X196875676Y-182254820D03*
%TD*%
D14*
%TO.C,SW45*%
X157480000Y-191770000D03*
D15*
X162560000Y-191770000D03*
D14*
X167640000Y-191770000D03*
D16*
X165100000Y-186690000D03*
X158750000Y-189230000D03*
%TD*%
D14*
%TO.C,SW71*%
X233680000Y-210820000D03*
D15*
X238760000Y-210820000D03*
D14*
X243840000Y-210820000D03*
D16*
X241300000Y-205740000D03*
X234950000Y-208280000D03*
%TD*%
D14*
%TO.C,SW47*%
X195580000Y-191770000D03*
D15*
X200660000Y-191770000D03*
D14*
X205740000Y-191770000D03*
D16*
X203200000Y-186690000D03*
X196850000Y-189230000D03*
%TD*%
D10*
%TO.C,J8*%
X351540000Y-100000000D03*
D11*
X351540000Y-102540000D03*
X351540000Y-105080000D03*
X351540000Y-107620000D03*
X351540000Y-110160000D03*
X351540000Y-112700000D03*
X351540000Y-115240000D03*
X351540000Y-117780000D03*
X351540000Y-120320000D03*
X351540000Y-122860000D03*
%TD*%
D10*
%TO.C,J10*%
X205740000Y-64265122D03*
D11*
X203200000Y-64265122D03*
X200660000Y-64265122D03*
X198120000Y-64265122D03*
X195580000Y-64265122D03*
X193040000Y-64265122D03*
X190500000Y-64265122D03*
X187960000Y-64265122D03*
X185420000Y-64265122D03*
X182880000Y-64265122D03*
X180340000Y-64265122D03*
X177800000Y-64265122D03*
X175260000Y-64265122D03*
X172720000Y-64265122D03*
X170180000Y-64265122D03*
X167640000Y-64265122D03*
%TD*%
D17*
%TO.C,D77*%
X356849944Y-201309476D03*
D18*
X349229944Y-201309476D03*
%TD*%
D14*
%TO.C,SW12*%
X252730000Y-153670000D03*
D15*
X257810000Y-153670000D03*
D14*
X262890000Y-153670000D03*
D16*
X260350000Y-148590000D03*
X254000000Y-151130000D03*
%TD*%
D17*
%TO.C,C8*%
X354616000Y-86868000D03*
D19*
X356616000Y-86868000D03*
%TD*%
D14*
%TO.C,SW57*%
X347980000Y-191770000D03*
D15*
X353060000Y-191770000D03*
D14*
X358140000Y-191770000D03*
D16*
X355600000Y-186690000D03*
X349250000Y-189230000D03*
%TD*%
D17*
%TO.C,D05*%
X166341415Y-144149733D03*
D18*
X158721415Y-144149733D03*
%TD*%
D17*
%TO.C,D55*%
X318761374Y-182254820D03*
D18*
X311141374Y-182254820D03*
%TD*%
D14*
%TO.C,SW37*%
X347980000Y-172720000D03*
D15*
X353060000Y-172720000D03*
D14*
X358140000Y-172720000D03*
D16*
X355600000Y-167640000D03*
X349250000Y-170180000D03*
%TD*%
D17*
%TO.C,D11*%
X242518547Y-144149733D03*
D18*
X234898547Y-144149733D03*
%TD*%
D14*
%TO.C,SW77*%
X347980000Y-210820000D03*
D15*
X353060000Y-210820000D03*
D14*
X358140000Y-210820000D03*
D16*
X355600000Y-205740000D03*
X349250000Y-208280000D03*
%TD*%
D17*
%TO.C,D40*%
X71185695Y-182254820D03*
D18*
X63565695Y-182254820D03*
%TD*%
D17*
%TO.C,D34*%
X299664966Y-163199733D03*
D18*
X292044966Y-163199733D03*
%TD*%
D10*
%TO.C,J4*%
X65361251Y-67688585D03*
D11*
X65361251Y-70228585D03*
%TD*%
D14*
%TO.C,SW02*%
X100330000Y-153670000D03*
D15*
X105410000Y-153670000D03*
D14*
X110490000Y-153670000D03*
D16*
X107950000Y-148590000D03*
X101600000Y-151130000D03*
%TD*%
D17*
%TO.C,D27*%
X204443551Y-163199733D03*
D18*
X196823551Y-163199733D03*
%TD*%
D14*
%TO.C,SW65*%
X157480000Y-210820000D03*
D15*
X162560000Y-210820000D03*
D14*
X167640000Y-210820000D03*
D16*
X165100000Y-205740000D03*
X158750000Y-208280000D03*
%TD*%
D14*
%TO.C,SW62*%
X100330000Y-210820000D03*
D15*
X105410000Y-210820000D03*
D14*
X110490000Y-210820000D03*
D16*
X107950000Y-205740000D03*
X101600000Y-208280000D03*
%TD*%
D14*
%TO.C,SW74*%
X290830000Y-210820000D03*
D15*
X295910000Y-210820000D03*
D14*
X300990000Y-210820000D03*
D16*
X298450000Y-205740000D03*
X292100000Y-208280000D03*
%TD*%
D14*
%TO.C,SW22*%
X100330000Y-172720000D03*
D15*
X105410000Y-172720000D03*
D14*
X110490000Y-172720000D03*
D16*
X107950000Y-167640000D03*
X101600000Y-170180000D03*
%TD*%
D12*
%TO.C,R6*%
X294386000Y-98806000D03*
D13*
X294386000Y-106426000D03*
%TD*%
D14*
%TO.C,SW55*%
X309880000Y-191770000D03*
D15*
X314960000Y-191770000D03*
D14*
X320040000Y-191770000D03*
D16*
X317500000Y-186690000D03*
X311150000Y-189230000D03*
%TD*%
D10*
%TO.C,J9*%
X349000000Y-100000000D03*
D11*
X349000000Y-102540000D03*
X349000000Y-105080000D03*
X349000000Y-107620000D03*
X349000000Y-110160000D03*
X349000000Y-112700000D03*
X349000000Y-115240000D03*
X349000000Y-117780000D03*
X349000000Y-120320000D03*
X349000000Y-122860000D03*
%TD*%
D17*
%TO.C,D67*%
X204495676Y-201309476D03*
D18*
X196875676Y-201309476D03*
%TD*%
D17*
%TO.C,D32*%
X261576400Y-163199733D03*
D18*
X253956400Y-163199733D03*
%TD*%
D17*
%TO.C,D23*%
X128266419Y-163199733D03*
D18*
X120646419Y-163199733D03*
%TD*%
D12*
%TO.C,R1*%
X286766000Y-98806000D03*
D13*
X286766000Y-106426000D03*
%TD*%
D14*
%TO.C,SW03*%
X119380000Y-153670000D03*
D15*
X124460000Y-153670000D03*
D14*
X129540000Y-153670000D03*
D16*
X127000000Y-148590000D03*
X120650000Y-151130000D03*
%TD*%
D17*
%TO.C,D66*%
X185451393Y-201309476D03*
D18*
X177831393Y-201309476D03*
%TD*%
D17*
%TO.C,D26*%
X185399268Y-163199733D03*
D18*
X177779268Y-163199733D03*
%TD*%
D17*
%TO.C,D17*%
X356784249Y-144149733D03*
D18*
X349164249Y-144149733D03*
%TD*%
D17*
%TO.C,D33*%
X280620683Y-163199733D03*
D18*
X273000683Y-163199733D03*
%TD*%
D14*
%TO.C,SW43*%
X119380000Y-191770000D03*
D15*
X124460000Y-191770000D03*
D14*
X129540000Y-191770000D03*
D16*
X127000000Y-186690000D03*
X120650000Y-189230000D03*
%TD*%
D17*
%TO.C,D41*%
X90229978Y-182254820D03*
D18*
X82609978Y-182254820D03*
%TD*%
D17*
%TO.C,D37*%
X356797819Y-163199733D03*
D18*
X349177819Y-163199733D03*
%TD*%
D14*
%TO.C,SW75*%
X309880000Y-210820000D03*
D15*
X314960000Y-210820000D03*
D14*
X320040000Y-210820000D03*
D16*
X317500000Y-205740000D03*
X311150000Y-208280000D03*
%TD*%
D14*
%TO.C,SW01*%
X81280000Y-153670000D03*
D15*
X86360000Y-153670000D03*
D14*
X91440000Y-153670000D03*
D16*
X88900000Y-148590000D03*
X82550000Y-151130000D03*
%TD*%
D17*
%TO.C,D25*%
X166354985Y-163199733D03*
D18*
X158734985Y-163199733D03*
%TD*%
D17*
%TO.C,D06*%
X185385698Y-144149733D03*
D18*
X177765698Y-144149733D03*
%TD*%
D17*
%TO.C,D73*%
X280672808Y-201309476D03*
D18*
X273052808Y-201309476D03*
%TD*%
D14*
%TO.C,SW11*%
X233680000Y-153670000D03*
D15*
X238760000Y-153670000D03*
D14*
X243840000Y-153670000D03*
D16*
X241300000Y-148590000D03*
X234950000Y-151130000D03*
%TD*%
D19*
%TO.C,C2*%
X335280000Y-87416000D03*
X335280000Y-89916000D03*
%TD*%
%TO.C,C5*%
X299070041Y-118342600D03*
X299070041Y-120842600D03*
%TD*%
D17*
%TO.C,U6*%
X295660041Y-115962600D03*
D18*
X293120041Y-115962600D03*
X290580041Y-115962600D03*
X288040041Y-115962600D03*
X285500041Y-115962600D03*
X282960041Y-115962600D03*
X280420041Y-115962600D03*
X280420041Y-123582600D03*
X282960041Y-123582600D03*
X285500041Y-123582600D03*
X288040041Y-123582600D03*
X290580041Y-123582600D03*
X293120041Y-123582600D03*
X295660041Y-123582600D03*
%TD*%
D19*
%TO.C,C1*%
X335280000Y-70906000D03*
X335280000Y-73406000D03*
%TD*%
D14*
%TO.C,SW27*%
X195580000Y-172720000D03*
D15*
X200660000Y-172720000D03*
D14*
X205740000Y-172720000D03*
D16*
X203200000Y-167640000D03*
X196850000Y-170180000D03*
%TD*%
D14*
%TO.C,SW24*%
X138430000Y-172720000D03*
D15*
X143510000Y-172720000D03*
D14*
X148590000Y-172720000D03*
D16*
X146050000Y-167640000D03*
X139700000Y-170180000D03*
%TD*%
D17*
%TO.C,D52*%
X261628525Y-182254820D03*
D18*
X254008525Y-182254820D03*
%TD*%
D14*
%TO.C,SW16*%
X328930000Y-153670000D03*
D15*
X334010000Y-153670000D03*
D14*
X339090000Y-153670000D03*
D16*
X336550000Y-148590000D03*
X330200000Y-151130000D03*
%TD*%
D14*
%TO.C,SW61*%
X81280000Y-210820000D03*
D15*
X86360000Y-210820000D03*
D14*
X91440000Y-210820000D03*
D16*
X88900000Y-205740000D03*
X82550000Y-208280000D03*
%TD*%
D10*
%TO.C,JP1*%
X252730000Y-73152000D03*
D11*
X255270000Y-73152000D03*
X257810000Y-73152000D03*
%TD*%
D14*
%TO.C,SW67*%
X195580000Y-210820000D03*
D15*
X200660000Y-210820000D03*
D14*
X205740000Y-210820000D03*
D16*
X203200000Y-205740000D03*
X196850000Y-208280000D03*
%TD*%
D17*
%TO.C,D30*%
X223487834Y-163199733D03*
D18*
X215867834Y-163199733D03*
%TD*%
D17*
%TO.C,D46*%
X185451393Y-182254820D03*
D18*
X177831393Y-182254820D03*
%TD*%
D17*
%TO.C,D24*%
X147310702Y-163199733D03*
D18*
X139690702Y-163199733D03*
%TD*%
D10*
%TO.C,J6*%
X118701251Y-131188585D03*
D11*
X121241251Y-131188585D03*
X123781251Y-131188585D03*
%TD*%
D17*
%TO.C,D00*%
X71120000Y-144149733D03*
D18*
X63500000Y-144149733D03*
%TD*%
D17*
%TO.C,D72*%
X261628525Y-201309476D03*
D18*
X254008525Y-201309476D03*
%TD*%
D14*
%TO.C,SW21*%
X81280000Y-172720000D03*
D15*
X86360000Y-172720000D03*
D14*
X91440000Y-172720000D03*
D16*
X88900000Y-167640000D03*
X82550000Y-170180000D03*
%TD*%
D14*
%TO.C,SW54*%
X290830000Y-191770000D03*
D15*
X295910000Y-191770000D03*
D14*
X300990000Y-191770000D03*
D16*
X298450000Y-186690000D03*
X292100000Y-189230000D03*
%TD*%
D17*
%TO.C,D03*%
X128252849Y-144149733D03*
D18*
X120632849Y-144149733D03*
%TD*%
D14*
%TO.C,SW44*%
X138430000Y-191770000D03*
D15*
X143510000Y-191770000D03*
D14*
X148590000Y-191770000D03*
D16*
X146050000Y-186690000D03*
X139700000Y-189230000D03*
%TD*%
D14*
%TO.C,SW50*%
X214630000Y-191770000D03*
D15*
X219710000Y-191770000D03*
D14*
X224790000Y-191770000D03*
D16*
X222250000Y-186690000D03*
X215900000Y-189230000D03*
%TD*%
D14*
%TO.C,SW36*%
X328930000Y-172720000D03*
D15*
X334010000Y-172720000D03*
D14*
X339090000Y-172720000D03*
D16*
X336550000Y-167640000D03*
X330200000Y-170180000D03*
%TD*%
D17*
%TO.C,D22*%
X109222136Y-163199733D03*
D18*
X101602136Y-163199733D03*
%TD*%
D17*
%TO.C,D65*%
X166407110Y-201309476D03*
D18*
X158787110Y-201309476D03*
%TD*%
D14*
%TO.C,SW25*%
X157480000Y-172720000D03*
D15*
X162560000Y-172720000D03*
D14*
X167640000Y-172720000D03*
D16*
X165100000Y-167640000D03*
X158750000Y-170180000D03*
%TD*%
D17*
%TO.C,D14*%
X299651396Y-144149733D03*
D18*
X292031396Y-144149733D03*
%TD*%
D19*
%TO.C,C3*%
X297330000Y-68090000D03*
X297330000Y-70590000D03*
%TD*%
D17*
%TO.C,U1*%
X296310000Y-82136666D03*
D18*
X293770000Y-82136666D03*
X291230000Y-82136666D03*
X288690000Y-82136666D03*
X286150000Y-82136666D03*
X283610000Y-82136666D03*
X281070000Y-82136666D03*
X278530000Y-82136666D03*
X278530000Y-89756666D03*
X281070000Y-89756666D03*
X283610000Y-89756666D03*
X286150000Y-89756666D03*
X288690000Y-89756666D03*
X291230000Y-89756666D03*
X293770000Y-89756666D03*
X296310000Y-89756666D03*
%TD*%
D17*
%TO.C,D63*%
X128318544Y-201309476D03*
D18*
X120698544Y-201309476D03*
%TD*%
D14*
%TO.C,SW06*%
X176530000Y-153670000D03*
D15*
X181610000Y-153670000D03*
D14*
X186690000Y-153670000D03*
D16*
X184150000Y-148590000D03*
X177800000Y-151130000D03*
%TD*%
D14*
%TO.C,SW07*%
X195580000Y-153670000D03*
D15*
X200660000Y-153670000D03*
D14*
X205740000Y-153670000D03*
D16*
X203200000Y-148590000D03*
X196850000Y-151130000D03*
%TD*%
D17*
%TO.C,D60*%
X71185695Y-201309476D03*
D18*
X63565695Y-201309476D03*
%TD*%
D14*
%TO.C,SW56*%
X328930000Y-191770000D03*
D15*
X334010000Y-191770000D03*
D14*
X339090000Y-191770000D03*
D16*
X336550000Y-186690000D03*
X330200000Y-189230000D03*
%TD*%
D17*
%TO.C,D20*%
X71133570Y-163199733D03*
D18*
X63513570Y-163199733D03*
%TD*%
D12*
%TO.C,R3*%
X281686000Y-98806000D03*
D13*
X281686000Y-106426000D03*
%TD*%
D17*
%TO.C,D44*%
X147362827Y-182254820D03*
D18*
X139742827Y-182254820D03*
%TD*%
D17*
%TO.C,D71*%
X242584242Y-201309476D03*
D18*
X234964242Y-201309476D03*
%TD*%
D14*
%TO.C,SW60*%
X62230000Y-210820000D03*
D15*
X67310000Y-210820000D03*
D14*
X72390000Y-210820000D03*
D16*
X69850000Y-205740000D03*
X63500000Y-208280000D03*
%TD*%
D14*
%TO.C,SW53*%
X271780000Y-191770000D03*
D15*
X276860000Y-191770000D03*
D14*
X281940000Y-191770000D03*
D16*
X279400000Y-186690000D03*
X273050000Y-189230000D03*
%TD*%
D10*
%TO.C,J2*%
X65361251Y-103248585D03*
D11*
X65361251Y-105788585D03*
X65361251Y-108328585D03*
X65361251Y-110868585D03*
X65361251Y-113408585D03*
X65361251Y-115948585D03*
X65361251Y-118488585D03*
X65361251Y-121028585D03*
%TD*%
D14*
%TO.C,SW33*%
X271780000Y-172720000D03*
D15*
X276860000Y-172720000D03*
D14*
X281940000Y-172720000D03*
D16*
X279400000Y-167640000D03*
X273050000Y-170180000D03*
%TD*%
D17*
%TO.C,D57*%
X356849944Y-182254820D03*
D18*
X349229944Y-182254820D03*
%TD*%
D14*
%TO.C,SW26*%
X176530000Y-172720000D03*
D15*
X181610000Y-172720000D03*
D14*
X186690000Y-172720000D03*
D16*
X184150000Y-167640000D03*
X177800000Y-170180000D03*
%TD*%
D14*
%TO.C,SW40*%
X62230000Y-191770000D03*
D15*
X67310000Y-191770000D03*
D14*
X72390000Y-191770000D03*
D16*
X69850000Y-186690000D03*
X63500000Y-189230000D03*
%TD*%
D14*
%TO.C,SW04*%
X138430000Y-153670000D03*
D15*
X143510000Y-153670000D03*
D14*
X148590000Y-153670000D03*
D16*
X146050000Y-148590000D03*
X139700000Y-151130000D03*
%TD*%
D12*
%TO.C,R2*%
X284226000Y-98806000D03*
D13*
X284226000Y-106426000D03*
%TD*%
D12*
%TO.C,R4*%
X279146000Y-98806000D03*
D13*
X279146000Y-106426000D03*
%TD*%
D17*
%TO.C,D10*%
X223474264Y-144149733D03*
D18*
X215854264Y-144149733D03*
%TD*%
D14*
%TO.C,SW14*%
X290830000Y-153670000D03*
D15*
X295910000Y-153670000D03*
D14*
X300990000Y-153670000D03*
D16*
X298450000Y-148590000D03*
X292100000Y-151130000D03*
%TD*%
D17*
%TO.C,D07*%
X204429981Y-144149733D03*
D18*
X196809981Y-144149733D03*
%TD*%
D17*
%TO.C,D51*%
X242584242Y-182254820D03*
D18*
X234964242Y-182254820D03*
%TD*%
D10*
%TO.C,J12*%
X350520000Y-64191741D03*
D11*
X353060000Y-64191741D03*
X355600000Y-64191741D03*
%TD*%
D17*
%TO.C,D53*%
X280672808Y-182254820D03*
D18*
X273052808Y-182254820D03*
%TD*%
D14*
%TO.C,SW05*%
X157480000Y-153670000D03*
D15*
X162560000Y-153670000D03*
D14*
X167640000Y-153670000D03*
D16*
X165100000Y-148590000D03*
X158750000Y-151130000D03*
%TD*%
D17*
%TO.C,D42*%
X109274261Y-182254820D03*
D18*
X101654261Y-182254820D03*
%TD*%
D17*
%TO.C,D64*%
X147362827Y-201309476D03*
D18*
X139742827Y-201309476D03*
%TD*%
D17*
%TO.C,D76*%
X337805657Y-201309476D03*
D18*
X330185657Y-201309476D03*
%TD*%
D14*
%TO.C,SW42*%
X100330000Y-191770000D03*
D15*
X105410000Y-191770000D03*
D14*
X110490000Y-191770000D03*
D16*
X107950000Y-186690000D03*
X101600000Y-189230000D03*
%TD*%
D17*
%TO.C,U5*%
X331830000Y-65680000D03*
D18*
X329290000Y-65680000D03*
X326750000Y-65680000D03*
X324210000Y-65680000D03*
X321670000Y-65680000D03*
X319130000Y-65680000D03*
X316590000Y-65680000D03*
X314050000Y-65680000D03*
X311510000Y-65680000D03*
X308970000Y-65680000D03*
X308970000Y-73300000D03*
X311510000Y-73300000D03*
X314050000Y-73300000D03*
X316590000Y-73300000D03*
X319130000Y-73300000D03*
X321670000Y-73300000D03*
X324210000Y-73300000D03*
X326750000Y-73300000D03*
X329290000Y-73300000D03*
X331830000Y-73300000D03*
%TD*%
D17*
%TO.C,D62*%
X109274261Y-201309476D03*
D18*
X101654261Y-201309476D03*
%TD*%
D14*
%TO.C,SW10*%
X214630000Y-153670000D03*
D15*
X219710000Y-153670000D03*
D14*
X224790000Y-153670000D03*
D16*
X222250000Y-148590000D03*
X215900000Y-151130000D03*
%TD*%
D17*
%TO.C,U2*%
X331830000Y-115050000D03*
D18*
X329290000Y-115050000D03*
X326750000Y-115050000D03*
X324210000Y-115050000D03*
X321670000Y-115050000D03*
X319130000Y-115050000D03*
X316590000Y-115050000D03*
X314050000Y-115050000D03*
X311510000Y-115050000D03*
X308970000Y-115050000D03*
X308970000Y-122670000D03*
X311510000Y-122670000D03*
X314050000Y-122670000D03*
X316590000Y-122670000D03*
X319130000Y-122670000D03*
X321670000Y-122670000D03*
X324210000Y-122670000D03*
X326750000Y-122670000D03*
X329290000Y-122670000D03*
X331830000Y-122670000D03*
%TD*%
D14*
%TO.C,SW72*%
X252730000Y-210820000D03*
D15*
X257810000Y-210820000D03*
D14*
X262890000Y-210820000D03*
D16*
X260350000Y-205740000D03*
X254000000Y-208280000D03*
%TD*%
D17*
%TO.C,D21*%
X90177853Y-163199733D03*
D18*
X82557853Y-163199733D03*
%TD*%
D14*
%TO.C,SW64*%
X138430000Y-210820000D03*
D15*
X143510000Y-210820000D03*
D14*
X148590000Y-210820000D03*
D16*
X146050000Y-205740000D03*
X139700000Y-208280000D03*
%TD*%
M02*
