%TF.GenerationSoftware,KiCad,Pcbnew,7.0.10*%
%TF.CreationDate,2025-03-29T10:40:23+00:00*%
%TF.ProjectId,BeanBoard,4265616e-426f-4617-9264-2e6b69636164,rev?*%
%TF.SameCoordinates,Original*%
%TF.FileFunction,Legend,Bot*%
%TF.FilePolarity,Positive*%
%FSLAX46Y46*%
G04 Gerber Fmt 4.6, Leading zero omitted, Abs format (unit mm)*
G04 Created by KiCad (PCBNEW 7.0.10) date 2025-03-29 10:40:23*
%MOMM*%
%LPD*%
G01*
G04 APERTURE LIST*
%ADD10C,0.254000*%
G04 APERTURE END LIST*
D10*
%TO.C,SW15*%
X294807000Y-140180000D02*
G75*
G03*
X294553000Y-140180000I-127000J0D01*
G01*
X294553000Y-140180000D02*
G75*
G03*
X294807000Y-140180000I127000J0D01*
G01*
%TO.C,SW63*%
X103883578Y-193630000D02*
G75*
G03*
X103629578Y-193630000I-127000J0D01*
G01*
X103629578Y-193630000D02*
G75*
G03*
X103883578Y-193630000I127000J0D01*
G01*
%TO.C,SW51*%
X223552640Y-175640000D02*
G75*
G03*
X223298640Y-175640000I-127000J0D01*
G01*
X223298640Y-175640000D02*
G75*
G03*
X223552640Y-175640000I127000J0D01*
G01*
%TO.C,SW17*%
X312987000Y-211540000D02*
G75*
G03*
X312733000Y-211540000I-127000J0D01*
G01*
X312733000Y-211540000D02*
G75*
G03*
X312987000Y-211540000I127000J0D01*
G01*
%TO.C,SW35*%
X294724588Y-157810000D02*
G75*
G03*
X294470588Y-157810000I-127000J0D01*
G01*
X294470588Y-157810000D02*
G75*
G03*
X294724588Y-157810000I127000J0D01*
G01*
%TO.C,SW20*%
X46386016Y-157810000D02*
G75*
G03*
X46132016Y-157810000I-127000J0D01*
G01*
X46132016Y-157810000D02*
G75*
G03*
X46386016Y-157810000I127000J0D01*
G01*
%TO.C,SW73*%
X252913826Y-193630000D02*
G75*
G03*
X252659826Y-193630000I-127000J0D01*
G01*
X252659826Y-193630000D02*
G75*
G03*
X252913826Y-193630000I127000J0D01*
G01*
%TO.C,SW32*%
X239390191Y-157810000D02*
G75*
G03*
X239136191Y-157810000I-127000J0D01*
G01*
X239136191Y-157810000D02*
G75*
G03*
X239390191Y-157810000I127000J0D01*
G01*
%TO.C,SW31*%
X220945392Y-157810000D02*
G75*
G03*
X220691392Y-157810000I-127000J0D01*
G01*
X220691392Y-157810000D02*
G75*
G03*
X220945392Y-157810000I127000J0D01*
G01*
%TO.C,SW34*%
X276279789Y-157810000D02*
G75*
G03*
X276025789Y-157810000I-127000J0D01*
G01*
X276025789Y-157810000D02*
G75*
G03*
X276279789Y-157810000I127000J0D01*
G01*
%TO.C,SW46*%
X168391775Y-175640000D02*
G75*
G03*
X168137775Y-175640000I-127000J0D01*
G01*
X168137775Y-175640000D02*
G75*
G03*
X168391775Y-175640000I127000J0D01*
G01*
%TO.C,SW70*%
X197027483Y-193630000D02*
G75*
G03*
X196773483Y-193630000I-127000J0D01*
G01*
X196773483Y-193630000D02*
G75*
G03*
X197027483Y-193630000I127000J0D01*
G01*
%TO.C,SW41*%
X76457000Y-175640000D02*
G75*
G03*
X76203000Y-175640000I-127000J0D01*
G01*
X76203000Y-175640000D02*
G75*
G03*
X76457000Y-175640000I127000J0D01*
G01*
%TO.C,SW30*%
X202500593Y-157810000D02*
G75*
G03*
X202246593Y-157810000I-127000J0D01*
G01*
X202246593Y-157810000D02*
G75*
G03*
X202500593Y-157810000I127000J0D01*
G01*
%TO.C,SW66*%
X159769921Y-193630000D02*
G75*
G03*
X159515921Y-193630000I-127000J0D01*
G01*
X159515921Y-193630000D02*
G75*
G03*
X159769921Y-193630000I127000J0D01*
G01*
%TO.C,SW76*%
X159667000Y-211540000D02*
G75*
G03*
X159413000Y-211540000I-127000J0D01*
G01*
X159413000Y-211540000D02*
G75*
G03*
X159667000Y-211540000I127000J0D01*
G01*
%TO.C,SW13*%
X247757263Y-140180000D02*
G75*
G03*
X247503263Y-140180000I-127000J0D01*
G01*
X247503263Y-140180000D02*
G75*
G03*
X247757263Y-140180000I127000J0D01*
G01*
%TO.C,SW52*%
X241939595Y-175640000D02*
G75*
G03*
X241685595Y-175640000I-127000J0D01*
G01*
X241685595Y-175640000D02*
G75*
G03*
X241939595Y-175640000I127000J0D01*
G01*
%TO.C,SW23*%
X110276598Y-157810000D02*
G75*
G03*
X110022598Y-157810000I-127000J0D01*
G01*
X110022598Y-157810000D02*
G75*
G03*
X110276598Y-157810000I127000J0D01*
G01*
%TO.C,SW00*%
X46386016Y-140180000D02*
G75*
G03*
X46132016Y-140180000I-127000J0D01*
G01*
X46132016Y-140180000D02*
G75*
G03*
X46386016Y-140180000I127000J0D01*
G01*
%TO.C,SW45*%
X150004820Y-175640000D02*
G75*
G03*
X149750820Y-175640000I-127000J0D01*
G01*
X149750820Y-175640000D02*
G75*
G03*
X150004820Y-175640000I127000J0D01*
G01*
%TO.C,SW71*%
X215656264Y-193630000D02*
G75*
G03*
X215402264Y-193630000I-127000J0D01*
G01*
X215402264Y-193630000D02*
G75*
G03*
X215656264Y-193630000I127000J0D01*
G01*
%TO.C,SW47*%
X186778730Y-175640000D02*
G75*
G03*
X186524730Y-175640000I-127000J0D01*
G01*
X186524730Y-175640000D02*
G75*
G03*
X186778730Y-175640000I127000J0D01*
G01*
%TO.C,SW12*%
X229450786Y-140180000D02*
G75*
G03*
X229196786Y-140180000I-127000J0D01*
G01*
X229196786Y-140180000D02*
G75*
G03*
X229450786Y-140180000I127000J0D01*
G01*
%TO.C,SW57*%
X85254797Y-211170000D02*
G75*
G03*
X85000797Y-211170000I-127000J0D01*
G01*
X85000797Y-211170000D02*
G75*
G03*
X85254797Y-211170000I127000J0D01*
G01*
%TO.C,SW37*%
X331357000Y-193630000D02*
G75*
G03*
X331103000Y-193630000I-127000J0D01*
G01*
X331103000Y-193630000D02*
G75*
G03*
X331357000Y-193630000I127000J0D01*
G01*
%TO.C,SW77*%
X312987000Y-193630000D02*
G75*
G03*
X312733000Y-193630000I-127000J0D01*
G01*
X312733000Y-193630000D02*
G75*
G03*
X312987000Y-193630000I127000J0D01*
G01*
%TO.C,SW02*%
X82998970Y-140180000D02*
G75*
G03*
X82744970Y-140180000I-127000J0D01*
G01*
X82744970Y-140180000D02*
G75*
G03*
X82998970Y-140180000I127000J0D01*
G01*
%TO.C,SW65*%
X141141140Y-193630000D02*
G75*
G03*
X140887140Y-193630000I-127000J0D01*
G01*
X140887140Y-193630000D02*
G75*
G03*
X141141140Y-193630000I127000J0D01*
G01*
%TO.C,SW62*%
X85254797Y-193630000D02*
G75*
G03*
X85000797Y-193630000I-127000J0D01*
G01*
X85000797Y-193630000D02*
G75*
G03*
X85254797Y-193630000I127000J0D01*
G01*
%TO.C,SW74*%
X271542607Y-193630000D02*
G75*
G03*
X271288607Y-193630000I-127000J0D01*
G01*
X271288607Y-193630000D02*
G75*
G03*
X271542607Y-193630000I127000J0D01*
G01*
%TO.C,SW22*%
X91831799Y-157810000D02*
G75*
G03*
X91577799Y-157810000I-127000J0D01*
G01*
X91577799Y-157810000D02*
G75*
G03*
X91831799Y-157810000I127000J0D01*
G01*
%TO.C,SW55*%
X46386016Y-211170000D02*
G75*
G03*
X46132016Y-211170000I-127000J0D01*
G01*
X46132016Y-211170000D02*
G75*
G03*
X46386016Y-211170000I127000J0D01*
G01*
%TO.C,SW03*%
X101305447Y-140180000D02*
G75*
G03*
X101051447Y-140180000I-127000J0D01*
G01*
X101051447Y-140180000D02*
G75*
G03*
X101305447Y-140180000I127000J0D01*
G01*
%TO.C,SW43*%
X113230910Y-175640000D02*
G75*
G03*
X112976910Y-175640000I-127000J0D01*
G01*
X112976910Y-175640000D02*
G75*
G03*
X113230910Y-175640000I127000J0D01*
G01*
%TO.C,SW75*%
X103883578Y-211540000D02*
G75*
G03*
X103629578Y-211540000I-127000J0D01*
G01*
X103629578Y-211540000D02*
G75*
G03*
X103883578Y-211540000I127000J0D01*
G01*
%TO.C,SW01*%
X64692493Y-140180000D02*
G75*
G03*
X64438493Y-140180000I-127000J0D01*
G01*
X64438493Y-140180000D02*
G75*
G03*
X64692493Y-140180000I127000J0D01*
G01*
%TO.C,SW11*%
X211144309Y-140180000D02*
G75*
G03*
X210890309Y-140180000I-127000J0D01*
G01*
X210890309Y-140180000D02*
G75*
G03*
X211144309Y-140180000I127000J0D01*
G01*
%TO.C,SW27*%
X184055794Y-157810000D02*
G75*
G03*
X183801794Y-157810000I-127000J0D01*
G01*
X183801794Y-157810000D02*
G75*
G03*
X184055794Y-157810000I127000J0D01*
G01*
%TO.C,SW24*%
X128721397Y-157810000D02*
G75*
G03*
X128467397Y-157810000I-127000J0D01*
G01*
X128467397Y-157810000D02*
G75*
G03*
X128721397Y-157810000I127000J0D01*
G01*
%TO.C,SW16*%
X312987000Y-175640000D02*
G75*
G03*
X312733000Y-175640000I-127000J0D01*
G01*
X312733000Y-175640000D02*
G75*
G03*
X312987000Y-175640000I127000J0D01*
G01*
%TO.C,SW61*%
X66626016Y-193630000D02*
G75*
G03*
X66372016Y-193630000I-127000J0D01*
G01*
X66372016Y-193630000D02*
G75*
G03*
X66626016Y-193630000I127000J0D01*
G01*
%TO.C,SW67*%
X178398702Y-193630000D02*
G75*
G03*
X178144702Y-193630000I-127000J0D01*
G01*
X178144702Y-193630000D02*
G75*
G03*
X178398702Y-193630000I127000J0D01*
G01*
%TO.C,SW21*%
X73387000Y-157810000D02*
G75*
G03*
X73133000Y-157810000I-127000J0D01*
G01*
X73133000Y-157810000D02*
G75*
G03*
X73387000Y-157810000I127000J0D01*
G01*
%TO.C,SW54*%
X278713505Y-175640000D02*
G75*
G03*
X278459505Y-175640000I-127000J0D01*
G01*
X278459505Y-175640000D02*
G75*
G03*
X278713505Y-175640000I127000J0D01*
G01*
%TO.C,SW44*%
X131617865Y-175640000D02*
G75*
G03*
X131363865Y-175640000I-127000J0D01*
G01*
X131363865Y-175640000D02*
G75*
G03*
X131617865Y-175640000I127000J0D01*
G01*
%TO.C,SW50*%
X205165685Y-175640000D02*
G75*
G03*
X204911685Y-175640000I-127000J0D01*
G01*
X204911685Y-175640000D02*
G75*
G03*
X205165685Y-175640000I127000J0D01*
G01*
%TO.C,SW36*%
X294614682Y-193630000D02*
G75*
G03*
X294360682Y-193630000I-127000J0D01*
G01*
X294360682Y-193630000D02*
G75*
G03*
X294614682Y-193630000I127000J0D01*
G01*
%TO.C,SW25*%
X147166196Y-157810000D02*
G75*
G03*
X146912196Y-157810000I-127000J0D01*
G01*
X146912196Y-157810000D02*
G75*
G03*
X147166196Y-157810000I127000J0D01*
G01*
%TO.C,SW06*%
X156224878Y-140180000D02*
G75*
G03*
X155970878Y-140180000I-127000J0D01*
G01*
X155970878Y-140180000D02*
G75*
G03*
X156224878Y-140180000I127000J0D01*
G01*
%TO.C,SW07*%
X174531355Y-140180000D02*
G75*
G03*
X174277355Y-140180000I-127000J0D01*
G01*
X174277355Y-140180000D02*
G75*
G03*
X174531355Y-140180000I127000J0D01*
G01*
%TO.C,SW56*%
X66626016Y-211170000D02*
G75*
G03*
X66372016Y-211170000I-127000J0D01*
G01*
X66372016Y-211170000D02*
G75*
G03*
X66626016Y-211170000I127000J0D01*
G01*
%TO.C,SW60*%
X46386016Y-193630000D02*
G75*
G03*
X46132016Y-193630000I-127000J0D01*
G01*
X46132016Y-193630000D02*
G75*
G03*
X46386016Y-193630000I127000J0D01*
G01*
%TO.C,SW53*%
X260326550Y-175640000D02*
G75*
G03*
X260072550Y-175640000I-127000J0D01*
G01*
X260072550Y-175640000D02*
G75*
G03*
X260326550Y-175640000I127000J0D01*
G01*
%TO.C,SW33*%
X257834990Y-157810000D02*
G75*
G03*
X257580990Y-157810000I-127000J0D01*
G01*
X257580990Y-157810000D02*
G75*
G03*
X257834990Y-157810000I127000J0D01*
G01*
%TO.C,SW26*%
X165610995Y-157810000D02*
G75*
G03*
X165356995Y-157810000I-127000J0D01*
G01*
X165356995Y-157810000D02*
G75*
G03*
X165610995Y-157810000I127000J0D01*
G01*
%TO.C,SW40*%
X46386016Y-175640000D02*
G75*
G03*
X46132016Y-175640000I-127000J0D01*
G01*
X46132016Y-175640000D02*
G75*
G03*
X46386016Y-175640000I127000J0D01*
G01*
%TO.C,SW04*%
X119611924Y-140180000D02*
G75*
G03*
X119357924Y-140180000I-127000J0D01*
G01*
X119357924Y-140180000D02*
G75*
G03*
X119611924Y-140180000I127000J0D01*
G01*
%TO.C,SW14*%
X266063740Y-140180000D02*
G75*
G03*
X265809740Y-140180000I-127000J0D01*
G01*
X265809740Y-140180000D02*
G75*
G03*
X266063740Y-140180000I127000J0D01*
G01*
%TO.C,SW05*%
X137918401Y-140180000D02*
G75*
G03*
X137664401Y-140180000I-127000J0D01*
G01*
X137664401Y-140180000D02*
G75*
G03*
X137918401Y-140180000I127000J0D01*
G01*
%TO.C,SW42*%
X94843955Y-175640000D02*
G75*
G03*
X94589955Y-175640000I-127000J0D01*
G01*
X94589955Y-175640000D02*
G75*
G03*
X94843955Y-175640000I127000J0D01*
G01*
%TO.C,SW10*%
X192837832Y-140180000D02*
G75*
G03*
X192583832Y-140180000I-127000J0D01*
G01*
X192583832Y-140180000D02*
G75*
G03*
X192837832Y-140180000I127000J0D01*
G01*
%TO.C,SW72*%
X234285045Y-193630000D02*
G75*
G03*
X234031045Y-193630000I-127000J0D01*
G01*
X234031045Y-193630000D02*
G75*
G03*
X234285045Y-193630000I127000J0D01*
G01*
%TO.C,SW64*%
X122512359Y-193630000D02*
G75*
G03*
X122258359Y-193630000I-127000J0D01*
G01*
X122258359Y-193630000D02*
G75*
G03*
X122512359Y-193630000I127000J0D01*
G01*
%TD*%
M02*
